<svg width="62" height="13" viewBox="0 0 62 13" fill="none" xmlns="http://www.w3.org/2000/svg">
<path d="M5.29688 12H3.10156V3.72656C2.29948 4.47656 1.35417 5.03125 0.265625 5.39062V3.39844C0.838542 3.21094 1.46094 2.85677 2.13281 2.33594C2.80469 1.8099 3.26562 1.19792 3.51562 0.5H5.29688V12ZM16 9.96094V12H8.30469C8.38802 11.2292 8.63802 10.5 9.05469 9.8125C9.47135 9.11979 10.2943 8.20312 11.5234 7.0625C12.513 6.14062 13.1198 5.51562 13.3438 5.1875C13.6458 4.73438 13.7969 4.28646 13.7969 3.84375C13.7969 3.35417 13.6641 2.97917 13.3984 2.71875C13.138 2.45312 12.776 2.32031 12.3125 2.32031C11.8542 2.32031 11.4896 2.45833 11.2188 2.73438C10.9479 3.01042 10.7917 3.46875 10.75 4.10938L8.5625 3.89062C8.69271 2.68229 9.10156 1.8151 9.78906 1.28906C10.4766 0.763021 11.3359 0.5 12.3672 0.5C13.4974 0.5 14.3854 0.804688 15.0312 1.41406C15.6771 2.02344 16 2.78125 16 3.6875C16 4.20312 15.9062 4.69531 15.7188 5.16406C15.5365 5.6276 15.2448 6.11458 14.8438 6.625C14.5781 6.96354 14.099 7.45052 13.4062 8.08594C12.7135 8.72135 12.2734 9.14323 12.0859 9.35156C11.9036 9.5599 11.7552 9.76302 11.6406 9.96094H16ZM21.2031 0.5C22.3125 0.5 23.1797 0.895833 23.8047 1.6875C24.5495 2.625 24.9219 4.17969 24.9219 6.35156C24.9219 8.51823 24.5469 10.0755 23.7969 11.0234C23.1771 11.8047 22.3125 12.1953 21.2031 12.1953C20.0885 12.1953 19.1901 11.7682 18.5078 10.9141C17.8255 10.0547 17.4844 8.52604 17.4844 6.32812C17.4844 4.17188 17.8594 2.61979 18.6094 1.67188C19.2292 0.890625 20.0938 0.5 21.2031 0.5ZM21.2031 2.32031C20.9375 2.32031 20.7005 2.40625 20.4922 2.57812C20.2839 2.74479 20.1224 3.04688 20.0078 3.48438C19.8568 4.05208 19.7812 5.00781 19.7812 6.35156C19.7812 7.69531 19.849 8.61979 19.9844 9.125C20.1198 9.625 20.2891 9.95833 20.4922 10.125C20.7005 10.2917 20.9375 10.375 21.2031 10.375C21.4688 10.375 21.7057 10.2917 21.9141 10.125C22.1224 9.95312 22.2839 9.64844 22.3984 9.21094C22.5495 8.64844 22.625 7.69531 22.625 6.35156C22.625 5.00781 22.5573 4.08594 22.4219 3.58594C22.2865 3.08073 22.1146 2.74479 21.9062 2.57812C21.7031 2.40625 21.4688 2.32031 21.2031 2.32031ZM30.1094 0.5C31.2188 0.5 32.0859 0.895833 32.7109 1.6875C33.4557 2.625 33.8281 4.17969 33.8281 6.35156C33.8281 8.51823 33.4531 10.0755 32.7031 11.0234C32.0833 11.8047 31.2188 12.1953 30.1094 12.1953C28.9948 12.1953 28.0964 11.7682 27.4141 10.9141C26.7318 10.0547 26.3906 8.52604 26.3906 6.32812C26.3906 4.17188 26.7656 2.61979 27.5156 1.67188C28.1354 0.890625 29 0.5 30.1094 0.5ZM30.1094 2.32031C29.8438 2.32031 29.6068 2.40625 29.3984 2.57812C29.1901 2.74479 29.0286 3.04688 28.9141 3.48438C28.763 4.05208 28.6875 5.00781 28.6875 6.35156C28.6875 7.69531 28.7552 8.61979 28.8906 9.125C29.026 9.625 29.1953 9.95833 29.3984 10.125C29.6068 10.2917 29.8438 10.375 30.1094 10.375C30.375 10.375 30.612 10.2917 30.8203 10.125C31.0286 9.95312 31.1901 9.64844 31.3047 9.21094C31.4557 8.64844 31.5312 7.69531 31.5312 6.35156C31.5312 5.00781 31.4635 4.08594 31.3281 3.58594C31.1927 3.08073 31.0208 2.74479 30.8125 2.57812C30.6094 2.40625 30.375 2.32031 30.1094 2.32031ZM40.2891 3.70312H43.0078L45.0703 9.48438L47.1484 3.70312H49.8594V12H47.9922V6.53906L45.9688 12H44.0938L42.1641 6.53906V12H40.2891V3.70312ZM52.1328 3.70312H54.8516L56.9141 9.48438L58.9922 3.70312H61.7031V12H59.8359V6.53906L57.8125 12H55.9375L54.0078 6.53906V12H52.1328V3.70312Z" fill="#5C6976"/>
</svg>
