<svg width="54" height="13" viewBox="0 0 54 13" fill="none" xmlns="http://www.w3.org/2000/svg">
<path d="M2.5625 5.82031C1.99479 5.58073 1.58073 5.2526 1.32031 4.83594C1.0651 4.41406 0.9375 3.95312 0.9375 3.45312C0.9375 2.59896 1.23438 1.89323 1.82812 1.33594C2.42708 0.778646 3.27604 0.5 4.375 0.5C5.46354 0.5 6.30729 0.778646 6.90625 1.33594C7.51042 1.89323 7.8125 2.59896 7.8125 3.45312C7.8125 3.98438 7.67448 4.45833 7.39844 4.875C7.1224 5.28646 6.73438 5.60156 6.23438 5.82031C6.86979 6.07552 7.35156 6.44792 7.67969 6.9375C8.01302 7.42708 8.17969 7.99219 8.17969 8.63281C8.17969 9.6901 7.84115 10.5495 7.16406 11.2109C6.49219 11.8724 5.59635 12.2031 4.47656 12.2031C3.4349 12.2031 2.56771 11.9297 1.875 11.3828C1.05729 10.737 0.648438 9.85156 0.648438 8.72656C0.648438 8.10677 0.802083 7.53906 1.10938 7.02344C1.41667 6.5026 1.90104 6.10156 2.5625 5.82031ZM3.01562 3.60938C3.01562 4.04688 3.13802 4.38802 3.38281 4.63281C3.63281 4.8776 3.96354 5 4.375 5C4.79167 5 5.125 4.8776 5.375 4.63281C5.625 4.38281 5.75 4.03906 5.75 3.60156C5.75 3.1901 5.625 2.86198 5.375 2.61719C5.13021 2.36719 4.80469 2.24219 4.39844 2.24219C3.97656 2.24219 3.64062 2.36719 3.39062 2.61719C3.14062 2.86719 3.01562 3.19792 3.01562 3.60938ZM2.8125 8.51562C2.8125 9.11979 2.96615 9.59115 3.27344 9.92969C3.58594 10.2682 3.97396 10.4375 4.4375 10.4375C4.89062 10.4375 5.26562 10.276 5.5625 9.95312C5.85938 9.625 6.00781 9.15365 6.00781 8.53906C6.00781 8.0026 5.85677 7.57292 5.55469 7.25C5.2526 6.92188 4.86979 6.75781 4.40625 6.75781C3.86979 6.75781 3.46875 6.94271 3.20312 7.3125C2.94271 7.68229 2.8125 8.08333 2.8125 8.51562ZM13.2969 0.5C14.4062 0.5 15.2734 0.895833 15.8984 1.6875C16.6432 2.625 17.0156 4.17969 17.0156 6.35156C17.0156 8.51823 16.6406 10.0755 15.8906 11.0234C15.2708 11.8047 14.4062 12.1953 13.2969 12.1953C12.1823 12.1953 11.2839 11.7682 10.6016 10.9141C9.91927 10.0547 9.57812 8.52604 9.57812 6.32812C9.57812 4.17188 9.95312 2.61979 10.7031 1.67188C11.3229 0.890625 12.1875 0.5 13.2969 0.5ZM13.2969 2.32031C13.0312 2.32031 12.7943 2.40625 12.5859 2.57812C12.3776 2.74479 12.2161 3.04688 12.1016 3.48438C11.9505 4.05208 11.875 5.00781 11.875 6.35156C11.875 7.69531 11.9427 8.61979 12.0781 9.125C12.2135 9.625 12.3828 9.95833 12.5859 10.125C12.7943 10.2917 13.0312 10.375 13.2969 10.375C13.5625 10.375 13.7995 10.2917 14.0078 10.125C14.2161 9.95312 14.3776 9.64844 14.4922 9.21094C14.6432 8.64844 14.7188 7.69531 14.7188 6.35156C14.7188 5.00781 14.651 4.08594 14.5156 3.58594C14.3802 3.08073 14.2083 2.74479 14 2.57812C13.7969 2.40625 13.5625 2.32031 13.2969 2.32031ZM22.2031 0.5C23.3125 0.5 24.1797 0.895833 24.8047 1.6875C25.5495 2.625 25.9219 4.17969 25.9219 6.35156C25.9219 8.51823 25.5469 10.0755 24.7969 11.0234C24.1771 11.8047 23.3125 12.1953 22.2031 12.1953C21.0885 12.1953 20.1901 11.7682 19.5078 10.9141C18.8255 10.0547 18.4844 8.52604 18.4844 6.32812C18.4844 4.17188 18.8594 2.61979 19.6094 1.67188C20.2292 0.890625 21.0938 0.5 22.2031 0.5ZM22.2031 2.32031C21.9375 2.32031 21.7005 2.40625 21.4922 2.57812C21.2839 2.74479 21.1224 3.04688 21.0078 3.48438C20.8568 4.05208 20.7812 5.00781 20.7812 6.35156C20.7812 7.69531 20.849 8.61979 20.9844 9.125C21.1198 9.625 21.2891 9.95833 21.4922 10.125C21.7005 10.2917 21.9375 10.375 22.2031 10.375C22.4688 10.375 22.7057 10.2917 22.9141 10.125C23.1224 9.95312 23.2839 9.64844 23.3984 9.21094C23.5495 8.64844 23.625 7.69531 23.625 6.35156C23.625 5.00781 23.5573 4.08594 23.4219 3.58594C23.2865 3.08073 23.1146 2.74479 22.9062 2.57812C22.7031 2.40625 22.4688 2.32031 22.2031 2.32031ZM32.3828 3.70312H35.1016L37.1641 9.48438L39.2422 3.70312H41.9531V12H40.0859V6.53906L38.0625 12H36.1875L34.2578 6.53906V12H32.3828V3.70312ZM44.2266 3.70312H46.9453L49.0078 9.48438L51.0859 3.70312H53.7969V12H51.9297V6.53906L49.9062 12H48.0312L46.1016 6.53906V12H44.2266V3.70312Z" fill="#5C6976"/>
</svg>
