<svg width="67" height="67" viewBox="0 0 67 67" fill="none" xmlns="http://www.w3.org/2000/svg">
<g clip-path="url(#clip0)">
<path d="M65.9398 16.6381C66.4883 16.6381 66.932 16.1938 66.932 15.6459V7.87405C66.932 5.18173 64.7422 2.99188 62.0504 2.99188H56.2179V2.78383C56.2179 1.17671 54.9103 -0.130859 53.3032 -0.130859H43.3911C41.784 -0.130859 40.4764 1.17671 40.4764 2.78383V2.99188H33.1887C30.4964 2.99188 28.3065 5.18224 28.3065 7.87405V17.3844H4.89803C2.26959 17.3844 0.130859 19.5231 0.130859 22.1515V62.102C0.130859 64.7304 2.26959 66.8691 4.89803 66.8691H8.26612C8.8141 66.8691 9.2583 66.4249 9.2583 65.877C9.2583 65.329 8.8141 64.8848 8.26612 64.8848H4.89803C3.3635 64.8848 2.11522 63.6365 2.11522 62.102V22.1515C2.11522 20.617 3.3635 19.3687 4.89803 19.3687H28.3065V21.3526H5.09125C4.54327 21.3526 4.09907 21.7968 4.09907 22.3448V32.1572C4.09907 32.7051 4.54327 33.1493 5.09125 33.1493H28.3065V35.3479H5.09125C4.54327 35.3479 4.09907 35.7921 4.09907 36.3401V62.0156C4.09907 62.5636 4.54327 63.0078 5.09125 63.0078H31.762C32.31 63.0078 32.7537 62.5636 32.7537 62.0156V47.9825C32.8973 47.9952 33.042 48.0029 33.1887 48.0029H34.7381V62.102C34.7381 63.6365 33.4898 64.8848 31.9547 64.8848H13.9739C13.4259 64.8848 12.9822 65.329 12.9822 65.877C12.9822 66.4249 13.4259 66.8691 13.9739 66.8691H31.9547C34.5837 66.8691 36.7224 64.7304 36.7224 62.102V48.0029H62.0504C64.7422 48.0029 66.932 45.8131 66.932 43.1212V18.9531C66.932 18.4052 66.4883 17.961 65.9398 17.961C65.3919 17.961 64.9482 18.4052 64.9482 18.9531V43.1212C64.9482 44.7186 63.6483 46.0191 62.0504 46.0191H33.1887C31.5908 46.0191 30.2909 44.7186 30.2909 43.1212V7.87405C30.2909 6.27614 31.5908 4.97623 33.1887 4.97623H40.4764V6.9606H33.2669C32.7189 6.9606 32.2752 7.4048 32.2752 7.95278V43.0425C32.2752 43.5905 32.7189 44.0347 33.2669 44.0347H61.9716C62.5196 44.0347 62.9638 43.5905 62.9638 43.0425V7.95278C62.9638 7.4048 62.5196 6.9606 61.9716 6.9606H56.2179V4.97623H62.0504C63.6483 4.97623 64.9482 6.27614 64.9482 7.87405V15.6459C64.9482 16.1938 65.3919 16.6381 65.9398 16.6381ZM6.08343 31.1655V23.3369H28.3065V31.1655H6.08343ZM28.4103 44.1221H24.049V37.3322H28.3065V43.1212C28.3065 43.4642 28.3428 43.799 28.4103 44.1221ZM14.7871 61.0234V54.2336H22.0646V61.0234H14.7871ZM14.7871 52.2497V46.1065H22.0646V52.2497H14.7871ZM6.08343 46.1065H12.8033V52.2497H6.08343V46.1065ZM14.7871 44.1221V37.3322H22.0646V44.1221H14.7871ZM12.8033 37.3322V44.1221H6.08343V37.3322H12.8033ZM6.08343 54.2336H12.8033V61.0234H6.08343V54.2336ZM24.049 61.0234V54.2336H30.7698V61.0234H24.049ZM30.7698 52.2497H24.049V46.1065H29.3299C29.722 46.6125 30.2111 47.0388 30.7693 47.3588L30.7698 52.2497ZM42.4608 2.78383C42.4608 2.27061 42.8779 1.8535 43.3911 1.8535H53.3032C53.8164 1.8535 54.2336 2.27061 54.2336 2.78383V2.99188H42.4608V2.78383ZM60.9795 8.94444V42.0503H34.2591V8.94444H40.4764V9.02776C40.4764 10.6349 41.784 11.9425 43.3911 11.9425H53.3032C54.9103 11.9425 56.2179 10.6349 56.2179 9.02776V8.94444H60.9795ZM42.4608 8.94444H54.2336V9.02776C54.2336 9.54047 53.8164 9.95809 53.3032 9.95809H43.3911C42.8779 9.95809 42.4608 9.54047 42.4608 9.02776V8.94444ZM54.2336 6.9606H42.4608V4.97623H54.2336V6.9606Z" fill="#0077C0"/>
<path d="M45.6751 14.0178C45.1819 13.7781 44.5884 13.9836 44.3492 14.4763L40.5527 22.2855L38.8331 19.1903C38.5673 18.7114 37.9631 18.5386 37.4842 18.8049C37.0052 19.0712 36.8324 19.6749 37.0987 20.1539L39.744 24.9159C39.9194 25.2313 40.2521 25.4261 40.6115 25.4261H40.6386C41.0087 25.4159 41.342 25.2007 41.504 24.8679L46.1337 15.3438C46.3729 14.851 46.1679 14.2575 45.6751 14.0178Z" fill="#0077C0"/>
<path d="M57.6067 21.1359H48.8764C48.3279 21.1359 47.8842 21.5801 47.8842 22.128C47.8842 22.676 48.3279 23.1202 48.8764 23.1202H57.6067C58.1546 23.1202 58.5988 22.676 58.5988 22.128C58.5988 21.5801 58.1546 21.1359 57.6067 21.1359Z" fill="#0077C0"/>
<path d="M47.8842 17.895C47.8842 18.443 48.3279 18.8872 48.8764 18.8872H57.6067C58.1546 18.8872 58.5988 18.443 58.5988 17.895C58.5988 17.347 58.1546 16.9028 57.6067 16.9028H48.8764C48.3279 16.9028 47.8842 17.347 47.8842 17.895Z" fill="#0077C0"/>
<path d="M45.6751 26.5133C45.1819 26.2736 44.5884 26.4796 44.3492 26.9718L40.5527 34.7815L38.8331 31.6858C38.5673 31.2069 37.9631 31.0346 37.4842 31.3004C37.0052 31.5667 36.8324 32.1709 37.0987 32.6494L39.744 37.4115C39.9194 37.7274 40.2521 37.9221 40.6115 37.9221C40.6207 37.9221 40.6294 37.9221 40.6386 37.9216C41.0087 37.9114 41.342 37.6967 41.504 37.3639L46.1337 27.8393C46.3729 27.3465 46.1679 26.7531 45.6751 26.5133Z" fill="#0077C0"/>
<path d="M57.6067 33.6313H48.8764C48.3279 33.6313 47.8842 34.0756 47.8842 34.6235C47.8842 35.1715 48.3279 35.6157 48.8764 35.6157H57.6067C58.1546 35.6157 58.5988 35.1715 58.5988 34.6235C58.5988 34.0756 58.1546 33.6313 57.6067 33.6313Z" fill="#0077C0"/>
<path d="M57.6067 29.3984H48.8764C48.3279 29.3984 47.8842 29.8426 47.8842 30.3906C47.8842 30.9385 48.3279 31.3827 48.8764 31.3827H57.6067C58.1546 31.3827 58.5988 30.9385 58.5988 30.3906C58.5988 29.8426 58.1546 29.3984 57.6067 29.3984Z" fill="#0077C0"/>
<ellipse cx="11.1677" cy="65.8506" rx="1.0186" ry="1.0186" fill="#0077C0"/>
</g>
<defs>
<clipPath id="clip0">
<rect width="67" height="67" fill="white"/>
</clipPath>
</defs>
</svg>
