<svg width="268" height="56" viewBox="0 0 268 56" fill="none" xmlns="http://www.w3.org/2000/svg">
<rect width="268" height="56" fill="#0077C0"/>
<path fill-rule="evenodd" clip-rule="evenodd" d="M19.5 22L0 55.775L0.389669 56H78.3897L19.5 22Z" fill="white" fill-opacity="0.08"/>
<path fill-rule="evenodd" clip-rule="evenodd" d="M54.5303 56H98.4088L65.4999 37L54.5303 56Z" fill="white" fill-opacity="0.05"/>
<path fill-rule="evenodd" clip-rule="evenodd" d="M247.909 34L267.409 0.225006L267.019 3.05176e-05H189.019L247.909 34Z" fill="white" fill-opacity="0.08"/>
<path fill-rule="evenodd" clip-rule="evenodd" d="M212.878 3.24249e-05H169L201.909 19L212.878 3.24249e-05Z" fill="white" fill-opacity="0.05"/>
<path d="M65.7969 24.3386L63.5469 23.8151C64.0312 21.9505 65.4089 21.0182 67.6797 21.0182C69.0234 21.0182 70.0365 21.3151 70.7188 21.9089C71.4062 22.4974 71.75 23.1901 71.75 23.987C71.75 24.5339 71.5938 25.0287 71.2812 25.4714C70.9688 25.9089 70.5 26.2943 69.875 26.6276C70.6354 26.888 71.2057 27.2578 71.5859 27.737C71.9661 28.211 72.1562 28.7969 72.1562 29.4948C72.1562 30.5 71.7865 31.3125 71.0469 31.9323C70.3125 32.5521 69.2109 32.862 67.7422 32.862C66.5443 32.862 65.599 32.6641 64.9062 32.2682C64.2135 31.8672 63.6927 31.1198 63.3438 30.0261L65.4609 29.3307C65.6797 30.0182 65.9688 30.4636 66.3281 30.6667C66.6927 30.8698 67.1406 30.9714 67.6719 30.9714C68.401 30.9714 68.9323 30.8151 69.2656 30.5026C69.599 30.1849 69.7656 29.8229 69.7656 29.4167C69.7656 28.9479 69.5755 28.5703 69.1953 28.2839C68.8203 27.9974 68.2526 27.8542 67.4922 27.8542H66.9688V26.1276H67.2344C67.9427 26.1276 68.4844 25.9688 68.8594 25.6511C69.2344 25.3334 69.4219 24.9115 69.4219 24.3854C69.4219 23.9688 69.2682 23.6172 68.9609 23.3307C68.6589 23.0443 68.224 22.9011 67.6562 22.9011C66.6875 22.9011 66.0677 23.3802 65.7969 24.3386ZM75.8203 26.9011L73.8281 26.5417C74.0521 25.7396 74.4375 25.1459 74.9844 24.7604C75.5312 24.375 76.3438 24.1823 77.4219 24.1823C78.401 24.1823 79.1302 24.2995 79.6094 24.5339C80.0885 24.763 80.4245 25.0573 80.6172 25.4167C80.8151 25.7709 80.9141 26.4245 80.9141 27.3776L80.8906 29.9401C80.8906 30.6693 80.9245 31.2084 80.9922 31.5573C81.0651 31.9011 81.1979 32.2709 81.3906 32.6667H79.2188C79.1615 32.5209 79.0911 32.3047 79.0078 32.0182C78.9714 31.888 78.9453 31.8021 78.9297 31.7604C78.5547 32.125 78.1536 32.3985 77.7266 32.5807C77.2995 32.763 76.8438 32.8542 76.3594 32.8542C75.5052 32.8542 74.8307 32.6224 74.3359 32.1589C73.8464 31.6953 73.6016 31.1094 73.6016 30.4011C73.6016 29.9323 73.7135 29.5156 73.9375 29.1511C74.1615 28.7813 74.474 28.5 74.875 28.3073C75.2812 28.1094 75.8646 27.9375 76.625 27.7917C77.651 27.599 78.362 27.4193 78.7578 27.2526V27.0339C78.7578 26.612 78.6536 26.3125 78.4453 26.1354C78.237 25.9531 77.8438 25.862 77.2656 25.862C76.875 25.862 76.5703 25.9401 76.3516 26.0964C76.1328 26.2474 75.9557 26.5156 75.8203 26.9011ZM78.7578 28.6823C78.4766 28.7761 78.0312 28.888 77.4219 29.0182C76.8125 29.1485 76.4141 29.2761 76.2266 29.4011C75.9401 29.6042 75.7969 29.862 75.7969 30.1745C75.7969 30.4818 75.9115 30.7474 76.1406 30.9714C76.3698 31.1953 76.6615 31.3073 77.0156 31.3073C77.4115 31.3073 77.7891 31.1771 78.1484 30.9167C78.4141 30.7188 78.5885 30.4766 78.6719 30.1901C78.7292 30.0026 78.7578 29.6459 78.7578 29.1198V28.6823ZM83 24.3698H85.1875V27.7604C85.5521 27.7188 85.8099 27.6068 85.9609 27.4245C86.112 27.2422 86.2943 26.8438 86.5078 26.2292C86.7891 25.4115 87.0964 24.888 87.4297 24.6589C87.763 24.4297 88.2005 24.3151 88.7422 24.3151C88.9089 24.3151 89.1979 24.3281 89.6094 24.3542L89.6172 25.8073C89.0391 25.8073 88.6693 25.862 88.5078 25.9714C88.3464 26.086 88.1719 26.4271 87.9844 26.9948C87.7292 27.7604 87.362 28.2318 86.8828 28.4089C87.5755 28.6016 88.1615 29.2031 88.6406 30.2136C88.6667 30.2656 88.6953 30.3203 88.7266 30.3776L89.9531 32.6667H87.5938L86.5 30.2682C86.276 29.7839 86.0807 29.474 85.9141 29.3386C85.7526 29.1979 85.5104 29.1276 85.1875 29.1276V32.6667H83V24.3698ZM92.7422 26.9011L90.75 26.5417C90.974 25.7396 91.3594 25.1459 91.9062 24.7604C92.4531 24.375 93.2656 24.1823 94.3438 24.1823C95.3229 24.1823 96.0521 24.2995 96.5312 24.5339C97.0104 24.763 97.3464 25.0573 97.5391 25.4167C97.737 25.7709 97.8359 26.4245 97.8359 27.3776L97.8125 29.9401C97.8125 30.6693 97.8464 31.2084 97.9141 31.5573C97.987 31.9011 98.1198 32.2709 98.3125 32.6667H96.1406C96.0833 32.5209 96.013 32.3047 95.9297 32.0182C95.8932 31.888 95.8672 31.8021 95.8516 31.7604C95.4766 32.125 95.0755 32.3985 94.6484 32.5807C94.2214 32.763 93.7656 32.8542 93.2812 32.8542C92.4271 32.8542 91.7526 32.6224 91.2578 32.1589C90.7682 31.6953 90.5234 31.1094 90.5234 30.4011C90.5234 29.9323 90.6354 29.5156 90.8594 29.1511C91.0833 28.7813 91.3958 28.5 91.7969 28.3073C92.2031 28.1094 92.7865 27.9375 93.5469 27.7917C94.5729 27.599 95.2839 27.4193 95.6797 27.2526V27.0339C95.6797 26.612 95.5755 26.3125 95.3672 26.1354C95.1589 25.9531 94.7656 25.862 94.1875 25.862C93.7969 25.862 93.4922 25.9401 93.2734 26.0964C93.0547 26.2474 92.8776 26.5156 92.7422 26.9011ZM95.6797 28.6823C95.3984 28.7761 94.9531 28.888 94.3438 29.0182C93.7344 29.1485 93.3359 29.2761 93.1484 29.4011C92.862 29.6042 92.7188 29.862 92.7188 30.1745C92.7188 30.4818 92.8333 30.7474 93.0625 30.9714C93.2917 31.1953 93.5833 31.3073 93.9375 31.3073C94.3333 31.3073 94.7109 31.1771 95.0703 30.9167C95.3359 30.7188 95.5104 30.4766 95.5938 30.1901C95.651 30.0026 95.6797 29.6459 95.6797 29.1198V28.6823ZM102.445 29.2604V27.8307C102.826 27.8307 103.102 27.8073 103.273 27.7604C103.445 27.7084 103.607 27.5886 103.758 27.4011C103.914 27.2084 103.992 26.9896 103.992 26.7448C103.992 26.4844 103.896 26.2448 103.703 26.0261C103.516 25.8021 103.232 25.6901 102.852 25.6901C102.56 25.6901 102.299 25.7526 102.07 25.8776C101.841 26.0026 101.633 26.2995 101.445 26.7682L99.5859 26.3698C99.7734 25.6406 100.174 25.0938 100.789 24.7292C101.404 24.3646 102.104 24.1823 102.891 24.1823C103.891 24.1823 104.664 24.4115 105.211 24.8698C105.763 25.3281 106.039 25.9037 106.039 26.5964C106.039 27.0287 105.919 27.388 105.68 27.6745C105.445 27.9557 105.073 28.2188 104.562 28.4636C105.177 28.6302 105.635 28.8828 105.938 29.2214C106.245 29.5599 106.398 29.9818 106.398 30.487C106.398 31.1328 106.096 31.6901 105.492 32.1589C104.888 32.6224 104.018 32.8542 102.883 32.8542C100.904 32.8542 99.6927 32.0807 99.25 30.5339L101.258 30.1667C101.581 30.9792 102.115 31.3854 102.859 31.3854C103.271 31.3854 103.599 31.2787 103.844 31.0651C104.094 30.8464 104.219 30.5912 104.219 30.2995C104.219 29.9766 104.089 29.724 103.828 29.5417C103.573 29.3542 103.237 29.2604 102.82 29.2604H102.445ZM109.586 26.9011L107.594 26.5417C107.818 25.7396 108.203 25.1459 108.75 24.7604C109.297 24.375 110.109 24.1823 111.188 24.1823C112.167 24.1823 112.896 24.2995 113.375 24.5339C113.854 24.763 114.19 25.0573 114.383 25.4167C114.581 25.7709 114.68 26.4245 114.68 27.3776L114.656 29.9401C114.656 30.6693 114.69 31.2084 114.758 31.5573C114.831 31.9011 114.964 32.2709 115.156 32.6667H112.984C112.927 32.5209 112.857 32.3047 112.773 32.0182C112.737 31.888 112.711 31.8021 112.695 31.7604C112.32 32.125 111.919 32.3985 111.492 32.5807C111.065 32.763 110.609 32.8542 110.125 32.8542C109.271 32.8542 108.596 32.6224 108.102 32.1589C107.612 31.6953 107.367 31.1094 107.367 30.4011C107.367 29.9323 107.479 29.5156 107.703 29.1511C107.927 28.7813 108.24 28.5 108.641 28.3073C109.047 28.1094 109.63 27.9375 110.391 27.7917C111.417 27.599 112.128 27.4193 112.523 27.2526V27.0339C112.523 26.612 112.419 26.3125 112.211 26.1354C112.003 25.9531 111.609 25.862 111.031 25.862C110.641 25.862 110.336 25.9401 110.117 26.0964C109.898 26.2474 109.721 26.5156 109.586 26.9011ZM112.523 28.6823C112.242 28.7761 111.797 28.888 111.188 29.0182C110.578 29.1485 110.18 29.2761 109.992 29.4011C109.706 29.6042 109.562 29.862 109.562 30.1745C109.562 30.4818 109.677 30.7474 109.906 30.9714C110.135 31.1953 110.427 31.3073 110.781 31.3073C111.177 31.3073 111.555 31.1771 111.914 30.9167C112.18 30.7188 112.354 30.4766 112.438 30.1901C112.495 30.0026 112.523 29.6459 112.523 29.1198V28.6823ZM115.867 24.3698H123.375V26.1432H120.719V32.6667H118.523V26.1432H115.867V24.3698ZM124.742 24.3698H126.938V27.8151H129.141C130.005 27.8151 130.669 27.8776 131.133 28.0026C131.596 28.1276 131.982 28.3985 132.289 28.8151C132.596 29.2266 132.75 29.7057 132.75 30.2526C132.75 31.0547 132.474 31.6589 131.922 32.0651C131.375 32.4662 130.552 32.6667 129.453 32.6667H124.742V24.3698ZM126.938 31.2761H128.984C129.625 31.2761 130.034 31.1719 130.211 30.9636C130.393 30.7552 130.484 30.5078 130.484 30.2214C130.484 29.8203 130.328 29.5443 130.016 29.3932C129.708 29.2422 129.159 29.1667 128.367 29.1667H126.938V31.2761ZM141.227 29.2604V27.8307C141.607 27.8307 141.883 27.8073 142.055 27.7604C142.227 27.7084 142.388 27.5886 142.539 27.4011C142.695 27.2084 142.773 26.9896 142.773 26.7448C142.773 26.4844 142.677 26.2448 142.484 26.0261C142.297 25.8021 142.013 25.6901 141.633 25.6901C141.341 25.6901 141.081 25.7526 140.852 25.8776C140.622 26.0026 140.414 26.2995 140.227 26.7682L138.367 26.3698C138.555 25.6406 138.956 25.0938 139.57 24.7292C140.185 24.3646 140.885 24.1823 141.672 24.1823C142.672 24.1823 143.445 24.4115 143.992 24.8698C144.544 25.3281 144.82 25.9037 144.82 26.5964C144.82 27.0287 144.701 27.388 144.461 27.6745C144.227 27.9557 143.854 28.2188 143.344 28.4636C143.958 28.6302 144.417 28.8828 144.719 29.2214C145.026 29.5599 145.18 29.9818 145.18 30.487C145.18 31.1328 144.878 31.6901 144.273 32.1589C143.669 32.6224 142.799 32.8542 141.664 32.8542C139.685 32.8542 138.474 32.0807 138.031 30.5339L140.039 30.1667C140.362 30.9792 140.896 31.3854 141.641 31.3854C142.052 31.3854 142.38 31.2787 142.625 31.0651C142.875 30.8464 143 30.5912 143 30.2995C143 29.9766 142.87 29.724 142.609 29.5417C142.354 29.3542 142.018 29.2604 141.602 29.2604H141.227ZM146.969 24.3698H151.773C152.758 24.3698 153.495 24.5495 153.984 24.9089C154.474 25.2682 154.719 25.8099 154.719 26.5339C154.719 26.9974 154.583 27.4011 154.312 27.7448C154.047 28.0886 153.711 28.3177 153.305 28.4323C153.878 28.5729 154.305 28.836 154.586 29.2214C154.867 29.6068 155.008 30.0287 155.008 30.487C155.008 31.1328 154.771 31.6589 154.297 32.0651C153.823 32.4662 153.122 32.6667 152.195 32.6667H146.969V24.3698ZM149.18 27.8151H150.594C151.276 27.8151 151.768 27.7292 152.07 27.5573C152.378 27.3854 152.531 27.1146 152.531 26.7448C152.531 26.3959 152.388 26.1485 152.102 26.0026C151.82 25.8516 151.318 25.7761 150.594 25.7761H149.18V27.8151ZM149.18 31.2604H150.914C151.539 31.2604 151.995 31.1849 152.281 31.0339C152.568 30.8828 152.711 30.612 152.711 30.2214C152.711 29.8151 152.547 29.5365 152.219 29.3854C151.891 29.2292 151.253 29.1511 150.305 29.1511H149.18V31.2604ZM156.062 28.4011C156.062 27.6719 156.242 26.9662 156.602 26.2839C156.961 25.6016 157.469 25.0807 158.125 24.7214C158.786 24.362 159.523 24.1823 160.336 24.1823C161.591 24.1823 162.62 24.5912 163.422 25.4089C164.224 26.2214 164.625 27.25 164.625 28.4948C164.625 29.75 164.219 30.7917 163.406 31.6198C162.599 32.4427 161.581 32.8542 160.352 32.8542C159.591 32.8542 158.865 32.6823 158.172 32.3386C157.484 31.9948 156.961 31.4922 156.602 30.8307C156.242 30.1641 156.062 29.3542 156.062 28.4011ZM158.312 28.5182C158.312 29.3412 158.508 29.9714 158.898 30.4089C159.289 30.8464 159.771 31.0651 160.344 31.0651C160.917 31.0651 161.396 30.8464 161.781 30.4089C162.172 29.9714 162.367 29.336 162.367 28.5026C162.367 27.6901 162.172 27.0651 161.781 26.6276C161.396 26.1901 160.917 25.9714 160.344 25.9714C159.771 25.9714 159.289 26.1901 158.898 26.6276C158.508 27.0651 158.312 27.6953 158.312 28.5182ZM166.266 24.3698H168.461V27.4089H171.602V24.3698H173.805V32.6667H171.602V29.1823H168.461V32.6667H166.266V24.3698ZM175.516 28.4011C175.516 27.6719 175.695 26.9662 176.055 26.2839C176.414 25.6016 176.922 25.0807 177.578 24.7214C178.24 24.362 178.977 24.1823 179.789 24.1823C181.044 24.1823 182.073 24.5912 182.875 25.4089C183.677 26.2214 184.078 27.25 184.078 28.4948C184.078 29.75 183.672 30.7917 182.859 31.6198C182.052 32.4427 181.034 32.8542 179.805 32.8542C179.044 32.8542 178.318 32.6823 177.625 32.3386C176.938 31.9948 176.414 31.4922 176.055 30.8307C175.695 30.1641 175.516 29.3542 175.516 28.4011ZM177.766 28.5182C177.766 29.3412 177.961 29.9714 178.352 30.4089C178.742 30.8464 179.224 31.0651 179.797 31.0651C180.37 31.0651 180.849 30.8464 181.234 30.4089C181.625 29.9714 181.82 29.336 181.82 28.5026C181.82 27.6901 181.625 27.0651 181.234 26.6276C180.849 26.1901 180.37 25.9714 179.797 25.9714C179.224 25.9714 178.742 26.1901 178.352 26.6276C177.961 27.0651 177.766 27.6953 177.766 28.5182ZM185.719 24.3698H187.906V27.7604C188.271 27.7188 188.529 27.6068 188.68 27.4245C188.831 27.2422 189.013 26.8438 189.227 26.2292C189.508 25.4115 189.815 24.888 190.148 24.6589C190.482 24.4297 190.919 24.3151 191.461 24.3151C191.628 24.3151 191.917 24.3281 192.328 24.3542L192.336 25.8073C191.758 25.8073 191.388 25.862 191.227 25.9714C191.065 26.086 190.891 26.4271 190.703 26.9948C190.448 27.7604 190.081 28.2318 189.602 28.4089C190.294 28.6016 190.88 29.2031 191.359 30.2136C191.385 30.2656 191.414 30.3203 191.445 30.3776L192.672 32.6667H190.312L189.219 30.2682C188.995 29.7839 188.799 29.474 188.633 29.3386C188.471 29.1979 188.229 29.1276 187.906 29.1276V32.6667H185.719V24.3698Z" fill="white"/>
</svg>
