<svg width="33" height="33" viewBox="0 0 33 33" fill="none" xmlns="http://www.w3.org/2000/svg">
<path d="M21.2466 17.0274C20.9452 16.726 20.9452 16.274 21.2466 15.9726L32.5479 4.67123C32.8493 4.36986 33 3.91781 33 3.61644C33 3.31507 32.8493 2.86301 32.5479 2.56164L30.4384 0.452055C30.137 0.150685 29.6849 0 29.3836 0C28.9315 0 28.6301 0.150685 28.3288 0.452055L17.0274 11.7534C16.726 12.0548 16.274 12.0548 15.9726 11.7534L4.67123 0.452055C4.36986 0.150685 3.91781 0 3.61644 0C3.31507 0 2.86301 0.150685 2.56164 0.452055L0.452055 2.56164C0.150685 2.86301 0 3.31507 0 3.61644C0 3.91781 0.150685 4.36986 0.452055 4.67123L11.7534 15.9726C12.0548 16.274 12.0548 16.726 11.7534 17.0274L0.452055 28.3288C0.150685 28.6301 0 29.0822 0 29.3836C0 29.6849 0.150685 30.137 0.452055 30.4384L2.56164 32.5479C2.86301 32.8493 3.31507 33 3.61644 33C3.91781 33 4.36986 32.8493 4.67123 32.5479L15.9726 21.2466C16.274 20.9452 16.726 20.9452 17.0274 21.2466L28.3288 32.5479C28.6301 32.8493 29.0822 33 29.3836 33C29.6849 33 30.137 32.8493 30.4384 32.5479L32.5479 30.4384C32.8493 30.137 33 29.6849 33 29.3836C33 29.0822 32.8493 28.6301 32.5479 28.3288L21.2466 17.0274Z" fill="#C02E00"/>
</svg>
