<svg width="149" height="45" viewBox="0 0 149 45" fill="none" xmlns="http://www.w3.org/2000/svg">
<rect x="0.5" y="0.5" width="148" height="44" stroke="#324152"/>
<path d="M31.1953 15.5469H40.3047V27H37.9922V17.4688H33.5078V27H31.1953V15.5469ZM42.1406 22.7344C42.1406 22.0052 42.3203 21.2995 42.6797 20.6172C43.0391 19.9349 43.5469 19.4141 44.2031 19.0547C44.8646 18.6953 45.6016 18.5156 46.4141 18.5156C47.6693 18.5156 48.6979 18.9245 49.5 19.7422C50.3021 20.5547 50.7031 21.5833 50.7031 22.8281C50.7031 24.0833 50.2969 25.125 49.4844 25.9531C48.6771 26.776 47.6589 27.1875 46.4297 27.1875C45.6693 27.1875 44.9427 27.0156 44.25 26.6719C43.5625 26.3281 43.0391 25.8255 42.6797 25.1641C42.3203 24.4974 42.1406 23.6875 42.1406 22.7344ZM44.3906 22.8516C44.3906 23.6745 44.5859 24.3047 44.9766 24.7422C45.3672 25.1797 45.849 25.3984 46.4219 25.3984C46.9948 25.3984 47.474 25.1797 47.8594 24.7422C48.25 24.3047 48.4453 23.6693 48.4453 22.8359C48.4453 22.0234 48.25 21.3984 47.8594 20.9609C47.474 20.5234 46.9948 20.3047 46.4219 20.3047C45.849 20.3047 45.3672 20.5234 44.9766 20.9609C44.5859 21.3984 44.3906 22.0286 44.3906 22.8516ZM59.0703 27H52.7891V29.1875H51.0078V25.2031H51.9062C52.2812 24.7865 52.5911 24.1354 52.8359 23.25C53.0807 22.3646 53.2266 20.849 53.2734 18.7031H59.9688V25.2031H60.8594V29.1875H59.0703V27ZM57.7969 25.2031L57.8047 20.5078H55.1484C55.0599 22.7995 54.6953 24.3646 54.0547 25.2031H57.7969ZM62.3047 18.7031H64.3516V19.9219C64.6172 19.5052 64.9766 19.1667 65.4297 18.9062C65.8828 18.6458 66.3854 18.5156 66.9375 18.5156C67.901 18.5156 68.7188 18.8932 69.3906 19.6484C70.0625 20.4036 70.3984 21.4557 70.3984 22.8047C70.3984 24.1901 70.0599 25.2682 69.3828 26.0391C68.7057 26.8047 67.8854 27.1875 66.9219 27.1875C66.4635 27.1875 66.0469 27.0964 65.6719 26.9141C65.3021 26.7318 64.9115 26.4193 64.5 25.9766V30.1562H62.3047V18.7031ZM64.4766 22.7109C64.4766 23.6432 64.6615 24.3333 65.0312 24.7812C65.401 25.224 65.8516 25.4453 66.3828 25.4453C66.8932 25.4453 67.3177 25.2422 67.6562 24.8359C67.9948 24.4245 68.1641 23.7526 68.1641 22.8203C68.1641 21.9505 67.9896 21.3047 67.6406 20.8828C67.2917 20.4609 66.8594 20.25 66.3438 20.25C65.8073 20.25 65.362 20.4583 65.0078 20.875C64.6536 21.2865 64.4766 21.8984 64.4766 22.7109ZM71.6406 22.7344C71.6406 22.0052 71.8203 21.2995 72.1797 20.6172C72.5391 19.9349 73.0469 19.4141 73.7031 19.0547C74.3646 18.6953 75.1016 18.5156 75.9141 18.5156C77.1693 18.5156 78.1979 18.9245 79 19.7422C79.8021 20.5547 80.2031 21.5833 80.2031 22.8281C80.2031 24.0833 79.7969 25.125 78.9844 25.9531C78.1771 26.776 77.1589 27.1875 75.9297 27.1875C75.1693 27.1875 74.4427 27.0156 73.75 26.6719C73.0625 26.3281 72.5391 25.8255 72.1797 25.1641C71.8203 24.4974 71.6406 23.6875 71.6406 22.7344ZM73.8906 22.8516C73.8906 23.6745 74.0859 24.3047 74.4766 24.7422C74.8672 25.1797 75.349 25.3984 75.9219 25.3984C76.4948 25.3984 76.974 25.1797 77.3594 24.7422C77.75 24.3047 77.9453 23.6693 77.9453 22.8359C77.9453 22.0234 77.75 21.3984 77.3594 20.9609C76.974 20.5234 76.4948 20.3047 75.9219 20.3047C75.349 20.3047 74.8672 20.5234 74.4766 20.9609C74.0859 21.3984 73.8906 22.0286 73.8906 22.8516ZM88.1562 15.2812H89.6484C89.6016 15.9427 89.4271 16.4453 89.125 16.7891C88.8281 17.1276 88.0911 17.2969 86.9141 17.2969C86.7734 17.2969 86.6328 17.2943 86.4922 17.2891H86.2109C85.513 17.2891 84.9453 17.3672 84.5078 17.5234C84.0703 17.6745 83.7109 17.9714 83.4297 18.4141C83.1536 18.8568 83.0104 19.5703 83 20.5547C83.3229 19.9453 83.7396 19.4896 84.25 19.1875C84.7656 18.8854 85.3776 18.7344 86.0859 18.7344C87.1745 18.7344 88.0964 19.1589 88.8516 20.0078C89.6068 20.8516 89.9844 21.8307 89.9844 22.9453C89.9844 24.1068 89.5859 25.1042 88.7891 25.9375C87.9974 26.7708 86.9609 27.1875 85.6797 27.1875C84.7995 27.1875 84.026 26.9766 83.3594 26.5547C82.6927 26.1328 82.2161 25.5573 81.9297 24.8281C81.6432 24.0938 81.5 22.8802 81.5 21.1875C81.5 19.1979 81.8646 17.7682 82.5938 16.8984C83.3281 16.0286 84.6068 15.5938 86.4297 15.5938H87.5391C87.8464 15.5938 88.0521 15.4896 88.1562 15.2812ZM83.7344 22.9141C83.7344 23.6693 83.9219 24.2682 84.2969 24.7109C84.6771 25.1484 85.1406 25.3672 85.6875 25.3672C86.276 25.3672 86.7578 25.1406 87.1328 24.6875C87.513 24.2292 87.7031 23.6406 87.7031 22.9219C87.7031 22.1875 87.5104 21.5964 87.125 21.1484C86.7448 20.6953 86.2734 20.4688 85.7109 20.4688C85.1641 20.4688 84.6979 20.6901 84.3125 21.1328C83.9271 21.5755 83.7344 22.1693 83.7344 22.9141ZM91.7344 18.7031H93.9297V21.7422H97.0703V18.7031H99.2734V27H97.0703V23.5156H93.9297V27H91.7344V18.7031ZM106.297 24.3594L108.484 24.7266C108.203 25.5286 107.758 26.1406 107.148 26.5625C106.544 26.9792 105.786 27.1875 104.875 27.1875C103.432 27.1875 102.365 26.7161 101.672 25.7734C101.125 25.0182 100.852 24.0651 100.852 22.9141C100.852 21.5391 101.211 20.4635 101.93 19.6875C102.648 18.9062 103.557 18.5156 104.656 18.5156C105.891 18.5156 106.865 18.9245 107.578 19.7422C108.292 20.5547 108.633 21.8021 108.602 23.4844H103.102C103.117 24.1354 103.294 24.6432 103.633 25.0078C103.971 25.3672 104.393 25.5469 104.898 25.5469C105.242 25.5469 105.531 25.4531 105.766 25.2656C106 25.0781 106.177 24.776 106.297 24.3594ZM106.422 22.1406C106.406 21.5052 106.242 21.0234 105.93 20.6953C105.617 20.362 105.237 20.1953 104.789 20.1953C104.31 20.1953 103.914 20.3698 103.602 20.7188C103.289 21.0677 103.135 21.5417 103.141 22.1406H106.422ZM115.203 24.3594L117.391 24.7266C117.109 25.5286 116.664 26.1406 116.055 26.5625C115.451 26.9792 114.693 27.1875 113.781 27.1875C112.339 27.1875 111.271 26.7161 110.578 25.7734C110.031 25.0182 109.758 24.0651 109.758 22.9141C109.758 21.5391 110.117 20.4635 110.836 19.6875C111.555 18.9062 112.464 18.5156 113.562 18.5156C114.797 18.5156 115.771 18.9245 116.484 19.7422C117.198 20.5547 117.539 21.8021 117.508 23.4844H112.008C112.023 24.1354 112.201 24.6432 112.539 25.0078C112.878 25.3672 113.299 25.5469 113.805 25.5469C114.148 25.5469 114.438 25.4531 114.672 25.2656C114.906 25.0781 115.083 24.776 115.203 24.3594ZM115.328 22.1406C115.312 21.5052 115.148 21.0234 114.836 20.6953C114.523 20.362 114.143 20.1953 113.695 20.1953C113.216 20.1953 112.82 20.3698 112.508 20.7188C112.195 21.0677 112.042 21.5417 112.047 22.1406H115.328Z" fill="#324152"/>
</svg>
