<svg width="482" height="27" viewBox="0 0 482 27" fill="none" xmlns="http://www.w3.org/2000/svg">
<path d="M0 26H482" stroke="#5C6976"/>
<path d="M1.10059 1.97852H2.30371V9.91504L7.63574 1.97852H8.96875V12H7.76562V4.08398L2.42676 12H1.10059V1.97852ZM11.0195 4.74023H12.9336L14.8408 10.5508L16.96 4.74023H18.7305V12H17.5V6.15527L15.3535 12H14.2529L12.2227 5.875V12H11.0195V4.74023ZM26.3252 4.74023V12H25.1016V9.16992H24.3906C23.9577 9.16992 23.6341 9.22689 23.4199 9.34082C23.2103 9.4502 22.9027 9.80794 22.4971 10.4141L21.4238 12H19.8994L21.2256 10.0449C21.6312 9.44792 22.0345 9.11068 22.4355 9.0332C21.7337 8.9375 21.2119 8.68457 20.8701 8.27441C20.5329 7.86426 20.3643 7.39258 20.3643 6.85938C20.3643 6.23047 20.5853 5.72005 21.0273 5.32812C21.474 4.9362 22.1188 4.74023 22.9619 4.74023H26.3252ZM25.1016 5.75879H23.3516C22.6178 5.75879 22.1439 5.87272 21.9297 6.10059C21.7201 6.32845 21.6152 6.59505 21.6152 6.90039C21.6152 7.33333 21.7702 7.65234 22.0801 7.85742C22.3945 8.05794 22.9482 8.1582 23.7412 8.1582H25.1016V5.75879Z" fill="#BEC3C8"/>
</svg>
