<svg width="23" height="152" viewBox="0 0 23 152" fill="none" xmlns="http://www.w3.org/2000/svg">
<path d="M20.0215 1.81152L20.0215 8.08691L10 8.08691L10 6.76074L18.8389 6.76074L18.8389 3.1377L13.6777 3.13769C12.6296 3.13769 11.8617 3.08756 11.374 2.9873C10.8864 2.8916 10.5059 2.68652 10.2324 2.37207C9.96354 2.05762 9.8291 1.65885 9.8291 1.17578C9.8291 0.884114 9.88379 0.533203 9.99316 0.123046L11.1689 0.348632C11.0778 0.567382 11.0322 0.754231 11.0322 0.909179C11.0322 1.20996 11.1439 1.43555 11.3672 1.58594C11.5951 1.73633 12.1283 1.81152 12.9668 1.81152L20.0215 1.81152ZM17.2598 10.1104L17.2598 11.3408L11.7227 11.3408L17.2598 14.752L17.2598 16.0781L10 16.0781L10 14.8477L15.5029 14.8477L10 11.4365L10 10.1104L17.2598 10.1104ZM12.6592 22.668L12.502 23.8779C11.668 23.7458 11.014 23.4062 10.54 22.8594C10.0706 22.3171 9.83594 21.6494 9.83594 20.8564C9.83594 19.863 10.1595 19.0632 10.8066 18.457C11.4583 17.8555 12.3903 17.5547 13.6025 17.5547C14.3864 17.5547 15.0723 17.6846 15.6602 17.9443C16.248 18.2041 16.6878 18.5983 16.9795 19.127C17.2757 19.6602 17.4238 20.2389 17.4238 20.8633C17.4238 21.6517 17.2233 22.2965 16.8223 22.7979C16.4258 23.2992 15.8607 23.6204 15.127 23.7617L14.9424 22.5654C15.43 22.4515 15.7969 22.2487 16.043 21.957C16.2891 21.6699 16.4121 21.3213 16.4121 20.9111C16.4121 20.2913 16.1888 19.7878 15.7422 19.4004C15.3001 19.013 14.5983 18.8193 13.6367 18.8193C12.6615 18.8193 11.9528 19.0062 11.5107 19.3799C11.0687 19.7536 10.8477 20.2412 10.8477 20.8428C10.8477 21.3258 10.9958 21.7292 11.292 22.0527C11.5882 22.3763 12.0439 22.5814 12.6592 22.668ZM17.2598 24.2676L17.2598 30.167L16.2412 30.167L16.2412 27.8291L10 27.8291L10 26.6055L16.2412 26.6055L16.2412 24.2676L17.2598 24.2676ZM10.8955 35.916C10.5081 35.4603 10.2347 35.0205 10.0752 34.5967C9.91569 34.1774 9.83594 33.7262 9.83594 33.2432C9.83594 32.4456 10.0296 31.8327 10.417 31.4043C10.8089 30.9759 11.3079 30.7617 11.9141 30.7617C12.2695 30.7617 12.5931 30.8415 12.8848 31.001C13.181 31.165 13.418 31.377 13.5957 31.6367C13.7734 31.901 13.9079 32.1973 13.999 32.5254C14.0628 32.7669 14.1243 33.1315 14.1836 33.6191C14.3021 34.6126 14.4434 35.3441 14.6074 35.8135C14.776 35.818 14.8831 35.8203 14.9287 35.8203C15.43 35.8203 15.7832 35.7041 15.9883 35.4717C16.2663 35.1572 16.4053 34.6901 16.4053 34.0703C16.4053 33.4915 16.3027 33.0632 16.0977 32.7852C15.8971 32.5117 15.5394 32.3089 15.0244 32.1768L15.1885 30.9736C15.7034 31.083 16.1182 31.263 16.4326 31.5137C16.7516 31.7643 16.9954 32.1266 17.1641 32.6006C17.3372 33.0745 17.4238 33.6237 17.4238 34.248C17.4238 34.8678 17.3509 35.3714 17.2051 35.7588C17.0592 36.1462 16.8747 36.431 16.6514 36.6133C16.4326 36.7956 16.1546 36.9232 15.8174 36.9961C15.6077 37.0371 15.2295 37.0576 14.6826 37.0576L13.042 37.0576C11.8981 37.0576 11.1735 37.0827 10.8682 37.1328C10.5674 37.1875 10.278 37.2923 10 37.4473L10 36.1621C10.2552 36.0345 10.5537 35.9525 10.8955 35.916ZM13.6436 35.8135C13.4613 35.3669 13.3063 34.6969 13.1787 33.8037C13.1058 33.2979 13.0238 32.9401 12.9326 32.7305C12.8415 32.5208 12.707 32.359 12.5293 32.2451C12.3561 32.1312 12.1624 32.0742 11.9482 32.0742C11.6201 32.0742 11.3467 32.1973 11.1279 32.4434C10.9092 32.694 10.7998 33.0586 10.7998 33.5371C10.7998 34.0111 10.9023 34.4326 11.1074 34.8018C11.3171 35.1709 11.6019 35.4421 11.9619 35.6152C12.2399 35.7474 12.6501 35.8135 13.1924 35.8135L13.6436 35.8135ZM17.2598 38.9717L17.2598 40.2021L11.7227 40.2021L17.2598 43.6133L17.2598 44.9395L10 44.9395L10 43.709L15.5029 43.709L10 40.2979L10 38.9717L17.2598 38.9717ZM20.0078 43.2441L20.0078 44.085C19.4381 44.0166 19.0006 43.807 18.6953 43.4561C18.39 43.1097 18.2373 42.6471 18.2373 42.0684C18.2373 41.485 18.3877 41.0179 18.6885 40.667C18.9938 40.3206 19.4336 40.1133 20.0078 40.0449L20.0078 40.8857C19.6979 40.9495 19.4655 41.0749 19.3105 41.2617C19.1602 41.4531 19.085 41.7083 19.085 42.0273C19.085 42.3965 19.1579 42.6745 19.3037 42.8613C19.4541 43.0527 19.6888 43.1803 20.0078 43.2441ZM17.2598 46.1289L17.2598 52.0283L16.2412 52.0283L16.2412 49.6904L10 49.6904L10 48.4668L16.2412 48.4668L16.2412 46.1289L17.2598 46.1289ZM12.3379 58.0098L12.1807 59.2812C11.4378 59.0807 10.8613 58.7093 10.4512 58.167C10.041 57.6247 9.83594 56.932 9.83594 56.0889C9.83594 55.027 10.1618 54.1839 10.8135 53.5596C11.4697 52.9398 12.388 52.6299 13.5684 52.6299C14.7897 52.6299 15.7376 52.9443 16.4121 53.5732C17.0866 54.2021 17.4238 55.0179 17.4238 56.0205C17.4238 56.9912 17.0934 57.7842 16.4326 58.3994C15.7718 59.0146 14.8421 59.3223 13.6436 59.3223C13.5706 59.3223 13.4613 59.32 13.3154 59.3154L13.3154 53.9014C12.5179 53.9469 11.9072 54.1725 11.4834 54.5781C11.0596 54.9837 10.8477 55.4896 10.8477 56.0957C10.8477 56.5469 10.9661 56.932 11.2031 57.251C11.4401 57.57 11.8184 57.8229 12.3379 58.0098ZM14.3271 53.9697L14.3271 58.0234C14.9378 57.9687 15.3958 57.8138 15.7012 57.5586C16.1751 57.1667 16.4121 56.6585 16.4121 56.0342C16.4121 55.4691 16.223 54.9928 15.8447 54.6055C15.4665 54.2227 14.9606 54.0107 14.3271 53.9697ZM17.2598 64.7363L17.2598 67.5732C17.2598 68.2705 17.2005 68.7878 17.082 69.125C16.9681 69.4668 16.7562 69.7585 16.4463 70C16.1364 70.2461 15.765 70.3691 15.332 70.3691C14.9857 70.3691 14.6826 70.2962 14.4228 70.1504C14.1676 70.0091 13.9534 69.7949 13.7803 69.5078C13.6663 69.8496 13.4521 70.1322 13.1377 70.3555C12.8278 70.5833 12.4587 70.6973 12.0303 70.6973C11.3421 70.6517 10.8317 70.4056 10.499 69.959C10.1663 69.5124 10 68.863 10 68.0107L10 64.7363L17.2598 64.7363ZM14.2041 65.9668L14.2041 67.2793C14.2041 67.8034 14.2314 68.1634 14.2861 68.3594C14.3408 68.5553 14.4502 68.7308 14.6143 68.8857C14.7829 69.0407 14.9834 69.1182 15.2158 69.1182C15.5986 69.1182 15.8652 68.9814 16.0156 68.708C16.166 68.4391 16.2412 67.9766 16.2412 67.3203L16.2412 65.9668L14.2041 65.9668ZM11.0117 65.9668L11.0117 67.5869C11.0117 68.2842 11.0915 68.7627 11.251 69.0225C11.415 69.2822 11.6953 69.4189 12.0918 69.4326C12.3242 69.4326 12.5384 69.3574 12.7344 69.207C12.9349 69.0566 13.0602 68.8607 13.1103 68.6191C13.165 68.3776 13.1924 67.9902 13.1924 67.457L13.1924 65.9668L11.0117 65.9668ZM17.2598 72.1738L17.2598 73.4043L14.2383 73.4043L14.2383 76.8154L17.2598 76.8154L17.2598 78.0459L10 78.0459L10 76.8154L13.2197 76.8154L13.2197 73.4043L10 73.4043L10 72.1738L17.2598 72.1738ZM17.2598 79.9053L17.2598 81.1357L11.7227 81.1357L17.2598 84.5469L17.2598 85.873L10 85.873L10 84.6426L15.5029 84.6426L10 81.2314L10 79.9053L17.2598 79.9053ZM13.2812 89.332L14.2451 89.332C14.2497 89.8516 14.2702 90.2048 14.3066 90.3916C14.3431 90.583 14.4525 90.763 14.6348 90.9316C14.8171 91.1003 15.0449 91.1846 15.3184 91.1846C15.651 91.1846 15.9154 91.0729 16.1113 90.8496C16.3118 90.6309 16.4121 90.346 16.4121 89.9951C16.4121 89.3024 16.0042 88.8171 15.1885 88.5391L15.3799 87.3701C16.7425 87.7347 17.4238 88.6143 17.4238 90.0088C17.4238 90.7835 17.2119 91.3896 16.7881 91.8271C16.3643 92.2692 15.8584 92.4902 15.2705 92.4902C14.6781 92.4902 14.2064 92.2031 13.8555 91.6289C13.6595 91.9935 13.4089 92.2669 13.1035 92.4492C12.8027 92.6315 12.445 92.7227 12.0303 92.7227C11.3786 92.7227 10.8499 92.4857 10.4443 92.0117C10.0387 91.5378 9.83593 90.8747 9.83593 90.0225C9.83593 88.3682 10.5719 87.4089 12.0439 87.1445L12.29 88.2998C11.8252 88.4046 11.4652 88.6165 11.21 88.9355C10.9547 89.2591 10.8271 89.6283 10.8271 90.043C10.8271 90.4577 10.9434 90.8018 11.1758 91.0752C11.4128 91.3532 11.7135 91.4922 12.0781 91.4922C12.3607 91.4922 12.6068 91.4056 12.8164 91.2324C13.026 91.0592 13.1559 90.8747 13.2061 90.6787C13.2607 90.4827 13.2881 90.1273 13.2881 89.6123C13.2881 89.5713 13.2858 89.4779 13.2812 89.332Z" fill="#B3B1B0"/>
<circle cx="13.5" cy="106.5" r="2.5" fill="#B3B1B0"/>
<rect x="13" y="106" width="1" height="46" fill="#B3B1B0"/>
</svg>
