<svg width="482" height="27" viewBox="0 0 482 27" fill="none" xmlns="http://www.w3.org/2000/svg">
<path d="M0 26H482" stroke="#5C6976"/>
<path d="M3.62988 12V3.16113H0.328125V1.97852H8.27148V3.16113H4.95605V12H3.62988ZM13.6582 9.66211L14.9297 9.81934C14.7292 10.5622 14.3577 11.1387 13.8154 11.5488C13.2731 11.959 12.5804 12.1641 11.7373 12.1641C10.6755 12.1641 9.83236 11.8382 9.20801 11.1865C8.58822 10.5303 8.27832 9.61198 8.27832 8.43164C8.27832 7.21029 8.59277 6.26237 9.22168 5.58789C9.85059 4.91341 10.6663 4.57617 11.6689 4.57617C12.6396 4.57617 13.4326 4.90658 14.0479 5.56738C14.6631 6.22819 14.9707 7.15788 14.9707 8.35645C14.9707 8.42936 14.9684 8.53874 14.9639 8.68457H9.5498C9.59538 9.4821 9.82096 10.0928 10.2266 10.5166C10.6322 10.9404 11.138 11.1523 11.7441 11.1523C12.1953 11.1523 12.5804 11.0339 12.8994 10.7969C13.2184 10.5599 13.4714 10.1816 13.6582 9.66211ZM9.61816 7.67285H13.6719C13.6172 7.06217 13.4622 6.60417 13.207 6.29883C12.8151 5.82487 12.307 5.58789 11.6826 5.58789C11.1175 5.58789 10.6413 5.77702 10.2539 6.15527C9.87109 6.53353 9.65918 7.03939 9.61816 7.67285ZM16.6182 4.74023H22.333V12H21.1094V5.75879H17.8486V9.375C17.8486 10.2181 17.8213 10.7741 17.7666 11.043C17.7119 11.3118 17.5615 11.5465 17.3154 11.7471C17.0693 11.9476 16.7139 12.0479 16.249 12.0479C15.9619 12.0479 15.6315 12.0296 15.2578 11.9932V10.9678H15.7979C16.0531 10.9678 16.2354 10.9427 16.3447 10.8926C16.4541 10.8379 16.527 10.7536 16.5635 10.6396C16.5999 10.5257 16.6182 10.1543 16.6182 9.52539V4.74023ZM29.1621 9.66211L30.4336 9.81934C30.2331 10.5622 29.8617 11.1387 29.3193 11.5488C28.777 11.959 28.0843 12.1641 27.2412 12.1641C26.1794 12.1641 25.3363 11.8382 24.7119 11.1865C24.0921 10.5303 23.7822 9.61198 23.7822 8.43164C23.7822 7.21029 24.0967 6.26237 24.7256 5.58789C25.3545 4.91341 26.1702 4.57617 27.1729 4.57617C28.1436 4.57617 28.9365 4.90658 29.5518 5.56738C30.167 6.22819 30.4746 7.15788 30.4746 8.35645C30.4746 8.42936 30.4723 8.53874 30.4678 8.68457H25.0537C25.0993 9.4821 25.3249 10.0928 25.7305 10.5166C26.1361 10.9404 26.6419 11.1523 27.248 11.1523C27.6992 11.1523 28.0843 11.0339 28.4033 10.7969C28.7223 10.5599 28.9753 10.1816 29.1621 9.66211ZM25.1221 7.67285H29.1758C29.1211 7.06217 28.9661 6.60417 28.7109 6.29883C28.319 5.82487 27.8109 5.58789 27.1865 5.58789C26.6214 5.58789 26.1452 5.77702 25.7578 6.15527C25.375 6.53353 25.1631 7.03939 25.1221 7.67285ZM36.21 1.97852H37.4404V5.44434C37.6956 5.15267 37.9759 4.9362 38.2812 4.79492C38.5866 4.64909 38.9147 4.57617 39.2656 4.57617C40.127 4.57617 40.8083 4.9362 41.3096 5.65625C41.8154 6.37174 42.0684 7.27409 42.0684 8.36328C42.0684 9.49805 41.7972 10.4163 41.2549 11.1182C40.7126 11.8154 40.0381 12.1641 39.2314 12.1641C38.9671 12.1641 38.6982 12.123 38.4248 12.041C38.1514 11.959 37.8232 11.7357 37.4404 11.3711V14.7822H36.21V11.3711C35.9639 11.6354 35.6904 11.8337 35.3896 11.9658C35.0934 12.098 34.7721 12.1641 34.4258 12.1641C33.6647 12.1641 32.9993 11.8314 32.4297 11.166C31.86 10.4961 31.5752 9.53906 31.5752 8.29492C31.5752 7.24219 31.8327 6.36035 32.3477 5.64941C32.8626 4.93392 33.5553 4.57617 34.4258 4.57617C34.7904 4.57617 35.1208 4.64909 35.417 4.79492C35.7132 4.9362 35.9775 5.15267 36.21 5.44434V1.97852ZM37.4336 8.39746C37.4336 9.49121 37.584 10.2272 37.8848 10.6055C38.1855 10.9792 38.5615 11.166 39.0127 11.166C39.514 11.166 39.9401 10.9359 40.291 10.4756C40.6465 10.0107 40.8242 9.29069 40.8242 8.31543C40.8242 7.39486 40.6602 6.70898 40.332 6.25781C40.0085 5.80664 39.5915 5.58105 39.0811 5.58105C38.5342 5.58105 38.1217 5.81576 37.8438 6.28516C37.5703 6.75456 37.4336 7.45866 37.4336 8.39746ZM32.8262 8.26074C32.8262 9.28613 32.9971 10.0244 33.3389 10.4756C33.6852 10.9268 34.1136 11.1523 34.624 11.1523C35.1572 11.1523 35.556 10.929 35.8203 10.4824C36.0846 10.0312 36.2168 9.35677 36.2168 8.45898C36.2168 7.50195 36.0778 6.78418 35.7998 6.30566C35.5218 5.82715 35.1025 5.58789 34.542 5.58789C34.0361 5.58789 33.6237 5.82259 33.3047 6.29199C32.9857 6.75684 32.8262 7.41309 32.8262 8.26074ZM43.0527 8.37012C43.0527 7.02572 43.4264 6.02995 44.1738 5.38281C44.7982 4.84505 45.5592 4.57617 46.457 4.57617C47.4551 4.57617 48.2708 4.9043 48.9043 5.56055C49.5378 6.21224 49.8545 7.11458 49.8545 8.26758C49.8545 9.20182 49.7132 9.93783 49.4307 10.4756C49.1527 11.0088 48.7448 11.4235 48.207 11.7197C47.6738 12.016 47.0905 12.1641 46.457 12.1641C45.4408 12.1641 44.6182 11.8382 43.9893 11.1865C43.3649 10.5348 43.0527 9.59603 43.0527 8.37012ZM44.3174 8.37012C44.3174 9.2998 44.5202 9.99707 44.9258 10.4619C45.3314 10.9222 45.8418 11.1523 46.457 11.1523C47.0677 11.1523 47.5758 10.9199 47.9814 10.4551C48.387 9.99023 48.5898 9.28158 48.5898 8.3291C48.5898 7.43132 48.3848 6.75228 47.9746 6.29199C47.569 5.82715 47.0632 5.59473 46.457 5.59473C45.8418 5.59473 45.3314 5.82487 44.9258 6.28516C44.5202 6.74544 44.3174 7.44043 44.3174 8.37012ZM51.3105 4.74023H52.541V7.76172H55.9521V4.74023H57.1826V12H55.9521V8.78027H52.541V12H51.3105V4.74023Z" fill="#BEC3C8"/>
</svg>
