<svg width="81" height="81" viewBox="0 0 81 81" fill="none" xmlns="http://www.w3.org/2000/svg">
<g clip-path="url(#clip0)">
<path d="M78.029 40.5001L80.9406 29.5281C81.081 28.9987 80.9701 28.4463 80.6362 28.0122C80.3022 27.5781 79.7966 27.3292 79.249 27.3292H72.1945C71.539 27.3292 71.0079 27.8603 71.0079 28.5157C71.0079 29.1712 71.539 29.7023 72.1945 29.7023H78.4392L75.6926 40.053C75.6154 40.3457 75.6154 40.655 75.6931 40.9493L78.4392 51.2983H72.1456C71.4901 51.2983 70.959 51.8294 70.959 52.4848C70.959 53.1402 71.4901 53.6713 72.1456 53.6713H79.249C79.7967 53.6713 80.3022 53.4225 80.6362 52.9884C80.97 52.5542 81.0809 52.0018 80.9406 51.4725L78.029 40.5001Z" fill="#0077C0"/>
<path d="M8.74651 51.298H2.56092L5.30749 40.9472C5.38469 40.6546 5.38469 40.3453 5.30701 40.051L2.56092 29.702H8.75632C9.41159 29.7022 9.94284 29.1711 9.94284 28.5156C9.94284 27.8602 9.41175 27.3291 8.75632 27.3291H1.75108C1.20338 27.3291 0.697925 27.578 0.363958 28.0121C0.0301495 28.4462 -0.0807508 28.9986 0.0595753 29.528L2.97115 40.5001L0.0595753 51.4722C-0.080909 52.0015 0.0299913 52.554 0.363958 52.9881C0.697925 53.4222 1.20354 53.671 1.75108 53.671H8.74651C9.40194 53.671 9.93303 53.1399 9.93303 52.4845C9.93303 51.8291 9.40194 51.298 8.74651 51.298Z" fill="#0077C0"/>
<path d="M63.9749 37.3261C63.22 31.6906 60.4437 26.506 56.1578 22.7271C51.8328 18.9141 46.2722 16.8141 40.5001 16.8141C34.7292 16.8141 29.1691 18.9135 24.8445 22.7256C20.5591 26.503 17.7823 31.6863 17.0261 37.3204C16.9388 37.97 17.3946 38.5672 18.044 38.6544C18.6929 38.7414 19.2908 38.2859 19.3779 37.6364C20.0581 32.5685 22.5567 27.9053 26.4136 24.5057C30.3044 21.0761 35.3073 19.1872 40.5001 19.1872C45.6939 19.1872 50.6973 21.0766 54.5884 24.5072C58.4456 27.9078 60.9438 32.5723 61.6229 37.6413C61.7028 38.2374 62.2122 38.6704 62.7974 38.6704C62.85 38.6704 62.9031 38.6669 62.9566 38.6598C63.606 38.5728 64.062 37.9759 63.9749 37.3261Z" fill="#0077C0"/>
<path d="M62.9734 42.1144C62.3252 42.0355 61.7309 42.4959 61.6502 43.1462C60.333 53.7879 51.2402 61.8126 40.5 61.8126C29.7517 61.8126 20.6583 53.7811 19.3478 43.1309C19.2679 42.4805 18.6746 42.0186 18.0253 42.0981C17.375 42.1782 16.9127 42.7704 16.9927 43.4207C18.4492 55.2586 28.5552 64.1857 40.5001 64.1857C52.4363 64.1857 62.5413 55.266 64.0055 43.4377C64.0859 42.7876 63.6239 42.195 62.9734 42.1144Z" fill="#0077C0"/>
<path d="M57.0231 34.4769C57.0231 32.8735 55.7187 31.5691 54.1153 31.5691H43.772L44.7326 29.2238C45.5964 27.4027 45.2735 25.2745 43.905 23.7912C43.2877 23.1219 42.4129 22.7852 41.5065 22.8654C40.5997 22.9463 39.7989 23.433 39.3097 24.201C39.305 24.2087 39.3001 24.2165 39.2953 24.2242L34.1694 32.6969C33.7949 32.2725 33.2501 32.0015 32.6426 31.9983L27.6788 31.9721C27.6751 31.9721 27.6715 31.9721 27.6679 31.9721C27.1214 31.9721 26.6076 32.1841 26.22 32.5697C25.8297 32.9578 25.6149 33.4748 25.6149 34.0252V49.1944C25.6149 50.3265 26.5359 51.2475 27.668 51.2475H32.6318C33.557 51.2475 34.3406 50.6323 34.5965 49.7897L38.6234 51.1626C40.4746 51.7936 42.405 52.1137 44.3607 52.1137H51.5352C53.1386 52.1137 54.443 50.8093 54.443 49.2061V48.1055C54.443 47.7441 54.3767 47.3978 54.2556 47.0784C55.0332 46.5559 55.5459 45.6682 55.5459 44.6631V43.5627C55.5459 43.1528 55.4607 42.7625 55.3071 42.4086C55.9858 41.8757 56.4227 41.048 56.4227 40.1202V39.0195C56.4227 38.5435 56.3077 38.0939 56.1039 37.697C56.6695 37.1662 57.0231 36.4122 57.0231 35.5774V34.4769ZM32.3121 48.8746H27.9878V34.3467L32.3121 34.3696V48.8746ZM54.1153 36.1124H53.5148H47.6486C46.9932 36.1124 46.4621 36.6435 46.4621 37.2989C46.4621 37.9544 46.9932 38.4854 47.6486 38.4854H53.5148C53.8095 38.4854 54.0495 38.7253 54.0495 39.02V40.1206C54.0495 40.4154 53.8095 40.6554 53.5148 40.6554H52.638H47.6486C46.9932 40.6554 46.4621 41.1864 46.4621 41.8419C46.4621 42.4973 46.9932 43.0284 47.6486 43.0284H52.638C52.9328 43.0284 53.1727 43.2684 53.1727 43.5631V44.6636C53.1727 44.9583 52.9328 45.1983 52.638 45.1983H51.5349H47.6486C46.9932 45.1983 46.4621 45.7294 46.4621 46.3848C46.4621 47.0403 46.9932 47.5714 47.6486 47.5714H51.5349C51.8296 47.5714 52.0696 47.8114 52.0696 48.1061V49.2067C52.0696 49.5014 51.8296 49.7413 51.5349 49.7413H44.3604C42.6655 49.7413 40.9928 49.4639 39.3888 48.9172L34.9362 47.3989C34.8536 47.3708 34.7698 47.3473 34.685 47.3288V35.6129C35.1004 35.431 35.4591 35.1279 35.7123 34.7306C35.7172 34.7229 35.7221 34.715 35.7269 34.7072L41.3167 25.468C41.4402 25.2807 41.6201 25.2381 41.7173 25.2294C41.8149 25.2209 42.0041 25.2312 42.1607 25.4006C42.8723 26.1722 43.0367 27.2812 42.5795 28.226C42.5689 28.2481 42.5587 28.2704 42.5496 28.293L40.906 32.3065C40.7562 32.6724 40.7984 33.089 41.0188 33.4174C41.2392 33.7457 41.6084 33.9426 42.0039 33.9426H54.1152C54.4099 33.9426 54.6499 34.1826 54.6499 34.4774V35.5777H54.65C54.65 35.8722 54.4101 36.1124 54.1153 36.1124Z" fill="#0077C0"/>
<path d="M69.6474 39.3091C68.7896 38.0952 68.6154 36.5497 69.1816 35.1754C70.4745 32.0369 69.2114 28.428 66.2441 26.7806C64.9445 26.0591 64.1172 24.742 64.0308 23.2582C63.834 19.8697 61.1303 17.1662 57.7421 16.9693C56.258 16.883 54.9411 16.0557 54.2197 14.7561C52.5722 11.7887 48.9631 10.5262 45.8247 11.8186C44.4507 12.3848 42.905 12.2108 41.691 11.353C38.9191 9.39411 35.1197 9.82236 32.853 12.3487C31.8604 13.4552 30.3916 13.9687 28.9265 13.7225C25.5793 13.1603 22.342 15.1949 21.3957 18.4544C20.9816 19.882 19.8819 20.9817 18.4543 21.3959C15.1948 22.3418 13.1606 25.5794 13.7224 28.9267C13.9686 30.3926 13.4551 31.8605 12.3486 32.8531C9.82224 35.1198 9.39414 38.9192 11.3529 41.6911C12.2106 42.9052 12.3847 44.4505 11.8184 45.8248C10.5256 48.9632 11.7887 52.5722 14.756 54.2196C16.0556 54.9411 16.8828 56.2582 16.9692 57.7419C17.166 61.1305 19.8697 63.834 23.258 64.0308C24.7421 64.1172 26.0589 64.9445 26.7803 66.2441C28.4279 69.2115 32.037 70.474 35.1754 69.1816C36.5494 68.6152 38.0952 68.7896 39.3091 69.6472C40.4763 70.4721 41.8253 70.8738 43.1658 70.8736C45.0087 70.8734 46.835 70.1141 48.1473 68.6515C49.1398 67.545 50.6089 67.0313 52.0737 67.2776C55.4203 67.8396 58.6583 65.8052 59.6045 62.5458C60.0187 61.1182 61.1183 60.0185 62.5459 59.6043C65.8054 58.6584 67.8396 55.4208 67.2778 52.0735C67.0316 50.6076 67.5452 49.1396 68.6516 48.1471C71.178 45.8803 71.6062 42.0809 69.6474 39.3091ZM67.0668 46.3806C65.3518 47.9191 64.5559 50.1942 64.9373 52.4665C65.2999 54.626 63.9873 56.7149 61.8842 57.3251C59.6717 57.9674 57.9674 59.6717 57.3251 61.8842C56.7149 63.9875 54.6263 65.3001 52.4665 64.9373C50.1939 64.5557 47.9191 65.3518 46.3806 67.0668C44.9183 68.697 42.4668 68.9733 40.6785 67.7092C39.5272 66.8956 38.1838 66.479 36.8264 66.479C35.9653 66.479 35.0983 66.6469 34.2716 66.9875C32.2469 67.8212 29.9183 67.0068 28.8552 65.0922C27.7368 63.078 25.696 61.7954 23.3957 61.6619C21.2097 61.5349 19.4653 59.7905 19.3383 57.6043C19.2046 55.3042 17.9222 53.2634 15.908 52.1449C13.9936 51.0819 13.1785 48.7535 14.0127 46.7288C14.8904 44.5984 14.6205 42.2034 13.291 40.3217C12.0271 38.5332 12.3033 36.0819 13.9335 34.6196C15.6484 33.0811 16.4443 30.806 16.0629 28.5337C15.7003 26.3742 17.0129 24.2853 19.116 23.6751C21.3285 23.0328 23.0328 21.3285 23.6751 19.116C24.2853 17.0129 26.3739 15.6991 28.5337 16.0628C30.8068 16.4451 33.0811 15.6484 34.6196 13.9334C36.0821 12.3033 38.5333 12.0271 40.3217 13.291C42.2032 14.6205 44.5984 14.8902 46.7286 14.0127C48.7535 13.179 51.0819 13.9932 52.145 15.908C53.2634 17.9222 55.3042 19.2048 57.6045 19.3383C59.7905 19.4653 61.5349 21.2097 61.6619 23.3957C61.6619 23.3959 61.6619 23.3959 61.6619 23.3959C61.7956 25.696 63.078 27.7368 65.0922 28.8553C67.0066 29.9183 67.8217 32.2467 66.9875 34.2714C66.1098 36.4018 66.3797 38.7968 67.7092 40.6785C68.9733 42.4669 68.697 44.9183 67.0668 46.3806Z" fill="#0077C0"/>
</g>
<defs>
<clipPath id="clip0">
<rect width="81" height="81" fill="white"/>
</clipPath>
</defs>
</svg>
