<svg width="171" height="165" viewBox="0 0 171 165" fill="none" xmlns="http://www.w3.org/2000/svg">
<path d="M147.487 23.5714H0V165H147.487V23.5714Z" fill="#0077C0"/>
<path d="M137.869 33.2143H9.61874V155.357H137.869V33.2143Z" fill="#0077C0" stroke="white"/>
<path d="M74.8125 34.2857H72.675V154.286H74.8125V34.2857Z" fill="#00ACF1"/>
<path d="M166.084 4.10448H18.5964V145.533H166.084V4.10448Z" fill="#0077C0"/>
<path d="M156.465 13.7473H28.2151V135.89H156.465V13.7473Z" fill="#0077C0" stroke="white"/>
<path d="M93.4089 14.8188H91.2714V134.819H93.4089V14.8188Z" fill="#00ACF1"/>
<path d="M156.497 46.791H9.83224V110H156.497V46.791Z" fill="white"/>
<path d="M30.1772 95.7137H28.3048V99.6737H27.0479V90.6737H28.3048V94.5823H30.2029L33.0244 90.6737H34.3966L31.1904 95.0323L34.5505 99.6737H33.0885L30.1772 95.7137ZM42.0596 90.6737C43.2224 90.6737 44.1372 90.9523 44.8041 91.5094C45.471 92.0666 45.8045 92.8337 45.8045 93.8109C45.8045 94.788 45.471 95.5552 44.8041 96.1123C44.1372 96.6694 43.2224 96.948 42.0596 96.948H39.8409V99.6737H38.5584V90.6737H42.0596ZM42.0211 95.8294C42.8334 95.8294 43.4532 95.658 43.8807 95.3152C44.3082 94.9637 44.522 94.4623 44.522 93.8109C44.522 93.1594 44.3082 92.6623 43.8807 92.3194C43.4532 91.968 42.8334 91.7923 42.0211 91.7923H39.8409V95.8294H42.0211ZM55.6663 97.4237H50.8954L49.9078 99.6737H48.5869L52.6524 90.6737H53.9221L58.0004 99.6737H56.6538L55.6663 97.4237ZM55.2174 96.3952L53.2808 91.9851L51.3442 96.3952H55.2174ZM66.1321 99.7766C65.2344 99.7766 64.4221 99.5794 63.6954 99.1852C62.9772 98.7823 62.4129 98.2337 62.0025 97.5394C61.5921 96.8366 61.3869 96.048 61.3869 95.1737C61.3869 94.2994 61.5921 93.5151 62.0025 92.8209C62.4129 92.118 62.9814 91.5694 63.7082 91.1752C64.4349 90.7723 65.2472 90.5709 66.1449 90.5709C66.846 90.5709 67.4873 90.6909 68.0687 90.9309C68.6501 91.1623 69.146 91.5094 69.5564 91.9723L68.7228 92.7823C68.0473 92.0709 67.2051 91.7151 66.1962 91.7151C65.5293 91.7151 64.9266 91.8651 64.3879 92.1651C63.8493 92.4651 63.426 92.8809 63.1182 93.4123C62.819 93.9352 62.6694 94.5223 62.6694 95.1737C62.6694 95.8252 62.819 96.4166 63.1182 96.948C63.426 97.4709 63.8493 97.8823 64.3879 98.1823C64.9266 98.4823 65.5293 98.6323 66.1962 98.6323C67.1966 98.6323 68.0388 98.2723 68.7228 97.5523L69.5564 98.3623C69.146 98.8252 68.6458 99.1766 68.0559 99.4166C67.4745 99.6566 66.8332 99.7766 66.1321 99.7766ZM81.7371 90.6737V99.6737H80.4546V95.6623H75.299V99.6737H74.0165V90.6737H75.299V94.5437H80.4546V90.6737H81.7371ZM91.2702 99.7766C90.3639 99.7766 89.5474 99.5794 88.8206 99.1852C88.0939 98.7823 87.521 98.2294 87.1021 97.5266C86.6917 96.8237 86.4865 96.0394 86.4865 95.1737C86.4865 94.308 86.6917 93.5237 87.1021 92.8209C87.521 92.118 88.0939 91.5694 88.8206 91.1752C89.5474 90.7723 90.3639 90.5709 91.2702 90.5709C92.1679 90.5709 92.9802 90.7723 93.7069 91.1752C94.4337 91.5694 95.0023 92.118 95.4127 92.8209C95.8231 93.5151 96.0283 94.2994 96.0283 95.1737C96.0283 96.048 95.8231 96.8366 95.4127 97.5394C95.0023 98.2337 94.4337 98.7823 93.7069 99.1852C92.9802 99.5794 92.1679 99.7766 91.2702 99.7766ZM91.2702 98.6323C91.9285 98.6323 92.5185 98.4823 93.04 98.1823C93.5701 97.8823 93.9848 97.4709 94.2841 96.948C94.5919 96.4166 94.7458 95.8252 94.7458 95.1737C94.7458 94.5223 94.5919 93.9352 94.2841 93.4123C93.9848 92.8809 93.5701 92.4651 93.04 92.1651C92.5185 91.8651 91.9285 91.7151 91.2702 91.7151C90.6118 91.7151 90.0133 91.8651 89.4747 92.1651C88.9446 92.4651 88.5256 92.8809 88.2178 93.4123C87.9186 93.9352 87.769 94.5223 87.769 95.1737C87.769 95.8252 87.9186 96.4166 88.2178 96.948C88.5256 97.4709 88.9446 97.8823 89.4747 98.1823C90.0133 98.4823 90.6118 98.6323 91.2702 98.6323ZM109.098 98.5552V101.641H107.906V99.6737H100.519L100.506 101.641H99.313L99.3258 98.5552H99.7618C100.326 98.5209 100.724 98.0752 100.955 97.218C101.185 96.3523 101.326 95.1352 101.378 93.5666L101.468 90.6737H107.777V98.5552H109.098ZM102.506 93.6823C102.464 94.9509 102.361 96.0009 102.199 96.8323C102.045 97.6637 101.792 98.238 101.442 98.5552H106.508V91.7923H102.57L102.506 93.6823ZM119.418 97.4237H114.647L113.66 99.6737H112.339L116.404 90.6737H117.674L121.752 99.6737H120.406L119.418 97.4237ZM118.969 96.3952L117.033 91.9851L115.096 96.3952H118.969ZM129.496 90.6737C130.659 90.6737 131.574 90.9523 132.241 91.5094C132.907 92.0666 133.241 92.8337 133.241 93.8109C133.241 94.788 132.907 95.5552 132.241 96.1123C131.574 96.6694 130.659 96.948 129.496 96.948H127.277V99.6737H125.995V90.6737H129.496ZM129.457 95.8294C130.27 95.8294 130.89 95.658 131.317 95.3152C131.745 94.9637 131.958 94.4623 131.958 93.8109C131.958 93.1594 131.745 92.6623 131.317 92.3194C130.89 91.968 130.27 91.7923 129.457 91.7923H127.277V95.8294H129.457ZM143.103 97.4237H138.332L137.344 99.6737H136.023L140.089 90.6737H141.358L145.437 99.6737H144.09L143.103 97.4237ZM142.654 96.3952L140.717 91.9851L138.781 96.3952H142.654Z" fill="#4C6076"/>
<path fill-rule="evenodd" clip-rule="evenodd" d="M30.3946 68.7094C30.3946 73.1848 31.3357 76.7263 33.1789 79.4115C35.0219 82.0967 37.5708 83.4197 40.7472 83.4197C43.4528 83.4197 45.6095 82.1745 47.2174 79.6449C48.8252 77.1154 49.6094 74.0411 49.6094 70.344C49.6094 65.5183 48.3938 61.6657 46.4331 59.4864C44.4724 57.3461 42.0803 56.2564 39.5316 56.2564C37.1786 56.2564 35.0612 57.4629 33.218 59.9145C31.3357 62.3662 30.3946 65.2849 30.3946 68.7094ZM25.65 69.8381C25.65 65.5185 27.0616 62.0938 29.885 59.4864C32.6693 56.9179 36.0417 55.6337 40.0022 55.6337C43.8059 55.6337 47.1785 56.9179 50.041 59.5254C52.9035 62.1328 54.3154 65.5963 54.3154 69.8381C54.3154 74.1579 52.9429 77.5824 50.1586 80.1508C47.3745 82.7582 44.0021 84.0424 40.0022 84.0424C36.5123 84.0424 33.0222 82.6414 30.2773 80.3066C27.5323 77.9715 25.65 74.1579 25.65 69.8381ZM37.1004 83.3803C34.9436 82.602 33.022 81.24 31.1791 79.0605C29.2968 76.8812 28.1203 73.3789 28.1203 69.2149C28.1203 66.2572 28.9048 63.6109 30.5124 61.2759C32.0811 58.941 34.0809 57.3064 36.5121 56.3336C33.4142 57.0731 30.9046 58.5907 28.9439 60.9647C26.944 63.3386 25.9636 66.2962 25.9636 69.8374C25.9636 73.7291 27.5714 77.2706 29.8457 79.4109C32.1202 81.5902 34.6298 82.9522 37.1004 83.3803ZM42.7474 56.5275C47.1393 58.2397 49.9234 62.8708 49.9234 70.3427C49.9234 75.9077 48.0412 80.5777 44.5513 82.7179C49.3745 80.8888 52.0019 76.0633 52.0019 69.8368C52.0019 66.3733 51.1784 63.4155 49.4921 61.0029C47.806 58.6288 45.5708 57.1112 42.7474 56.5275ZM64.6677 61.3513V68.862C65.1773 68.94 65.8048 68.9788 66.5107 68.9788C75.4514 68.9788 72.7064 55.8641 78.7453 55.8641C80.0395 55.8641 80.9413 56.7202 80.9413 57.81C80.9413 58.7829 80.0395 59.5222 79.2159 59.5222C78.9022 59.5222 78.4317 59.3666 77.765 59.0162C77.0983 58.7049 76.5885 58.5493 76.3141 58.5493C75.9612 58.5493 75.6083 59.0162 75.216 59.9893C74.824 60.9622 74.4318 62.0906 74.0398 63.297C73.6475 64.5034 73.0202 65.7099 72.1182 66.9163C71.2164 68.1227 70.1968 68.862 69.0203 69.2124C74.1573 69.2512 77.0592 71.4694 78.0004 74.8552L79.1768 79.2137C79.8433 81.7044 81.6865 82.9886 83.451 82.9886H83.7648V83.4555H81.5687C81.412 83.4555 80.9022 83.4945 80.0002 83.5335C79.0984 83.5723 78.4317 83.5723 78.0004 83.5723C76.1572 83.5723 75.2554 82.2493 74.2749 78.4744L73.1378 73.9601C72.5104 71.625 70.5106 69.6015 67.6871 69.6015C65.8833 69.6015 64.8637 69.6403 64.6677 69.6793V78.3187C64.6677 80.1478 64.9028 81.3152 65.3342 81.7822C65.7655 82.2881 66.8635 82.7162 68.6674 83.1054L68.6283 83.5723C68.1185 83.5723 67.2164 83.5723 65.844 83.5335C64.4715 83.4945 63.4128 83.4555 62.5892 83.4555C62.001 83.4555 61.06 83.4945 59.7658 83.5335C58.4717 83.5723 57.2955 83.5723 56.315 83.5723L56.2759 83.1054C58.0797 82.833 59.2169 82.3271 59.6482 81.6654C60.0796 81.0039 60.2756 79.7197 60.2756 77.7739V61.6627C60.2756 59.5999 60.0796 58.2769 59.7267 57.6932C59.3344 57.1483 58.3933 56.7592 56.9032 56.5646L56.9426 56.0977C57.7659 56.0977 58.7464 56.0977 59.8835 56.1364C60.9816 56.1754 61.8443 56.2144 62.4716 56.2144C63.8441 56.2144 66.1577 56.0977 67.6087 56.0977L67.6478 56.5646C66.2362 56.8369 65.3735 57.1873 65.099 57.6542C64.8244 58.1602 64.6677 59.3666 64.6677 61.3513ZM62.4721 78.3208V60.8863C62.4721 59.3297 62.5503 58.2789 62.7072 57.7342C62.825 57.2282 63.2563 56.8001 63.9228 56.4889C63.4914 56.5277 62.7072 56.5277 61.57 56.5277C60.7073 56.5277 59.8838 56.5277 59.0604 56.4889C59.7662 56.8001 60.1975 57.2282 60.3544 57.7342C60.5113 58.2789 60.5898 59.3297 60.5898 60.8863V78.3208C60.5898 80.1497 60.5113 81.3174 60.3151 81.8621C60.1191 82.4458 59.5309 82.8739 58.5506 83.2243C59.6486 83.2243 61.374 83.1463 61.57 83.1463C62.2367 83.1463 63.217 83.1853 64.4719 83.2243C63.5308 82.8739 62.9816 82.407 62.7856 81.9011C62.5896 81.3952 62.4721 80.1887 62.4721 78.3208ZM75.8827 57.9664C76.0396 57.8887 76.1965 57.8497 76.3534 57.8497C77.0201 57.8497 78.0004 58.3554 78.7455 58.3554C79.4904 58.3554 79.9217 57.8497 79.9217 57.2274C79.9217 56.5271 79.5297 56.1772 78.7455 56.1772C77.6081 56.1772 76.6279 56.7604 75.8827 57.9664ZM70.3539 69.9159C72.0008 70.8109 73.0204 72.1342 73.4518 73.8853L74.5889 78.3997C75.4907 81.7854 76.4712 83.2642 78.0006 83.2642C78.3535 83.2642 80.0789 83.1864 80.0789 83.1864C79.1377 82.9138 78.4319 82.4859 78.0006 81.9409C77.5692 81.435 77.1379 80.3844 76.7065 78.8276L75.4907 74.2744C74.8242 71.667 73.0989 70.1882 70.3539 69.9159ZM113.293 61.3549V78.3225C113.293 81.4357 113.999 82.6811 117.293 83.1092L117.254 83.5762C116.783 83.5762 115.92 83.5762 114.626 83.5372C113.332 83.4984 112.156 83.4594 111.097 83.4594C110.195 83.4594 109.176 83.4984 108.078 83.5372C106.98 83.5762 106.195 83.5762 105.686 83.5762L105.646 83.1092C107.097 82.8367 108.038 82.4087 108.391 81.8248C108.744 81.2411 108.901 80.0737 108.901 78.3225V69.8777C108.901 69.5274 108.823 69.4886 108.313 69.4886H94.7449C94.2744 69.4886 94.196 69.5274 94.196 69.8777V78.3225C94.196 79.9181 94.4313 81.0465 94.8627 81.6692C95.294 82.3307 96.3136 82.7979 97.843 83.1092L97.8036 83.5762C97.3332 83.5762 96.5487 83.5762 95.4116 83.5372C94.2744 83.4984 93.2157 83.4594 92.1568 83.4594C91.255 83.4594 90.0785 83.4984 88.706 83.5372C87.2944 83.5762 86.3533 83.5762 85.8435 83.5762L85.8041 83.1092C87.4904 82.8367 88.5491 82.4475 89.0589 81.9028C89.5687 81.3969 89.804 80.1904 89.804 78.3225V61.3549C89.804 59.5648 89.608 58.3586 89.2551 57.7359C88.8629 57.1522 87.9218 56.763 86.4317 56.5684L86.4708 56.1013C88.0787 56.1013 90.5883 56.2181 92.1568 56.2181C93.3724 56.2181 96.1958 56.1013 97.5292 56.1013L97.5683 56.5684C96.1174 56.8408 95.1762 57.2299 94.7842 57.7747C94.392 58.3586 94.196 59.526 94.196 61.3549V68.5155C94.196 68.8659 94.2353 68.8659 94.8627 68.8659H108.313C108.823 68.8659 108.901 68.8659 108.901 68.3989V61.3549C108.901 59.4482 108.744 58.2028 108.391 57.6581C108.038 57.1522 107.215 56.763 105.921 56.5684L105.96 56.1013C107.568 56.1013 109.646 56.2181 111.215 56.2181C112.43 56.2181 115.254 56.1013 116.587 56.1013L116.626 56.5684C115.215 56.8408 114.313 57.2299 113.921 57.7747C113.489 58.3196 113.293 59.526 113.293 61.3549ZM91.9999 78.3208V60.8863C91.9999 59.3687 92.0784 58.3179 92.2352 57.7342C92.3921 57.1892 92.8235 56.7613 93.4902 56.4889C93.1373 56.5277 92.3528 56.5277 91.0588 56.5277C90.2745 56.5277 89.4903 56.5277 88.6669 56.4889C89.2943 56.8001 89.6863 57.1892 89.8825 57.6952C90.0394 58.2011 90.1176 59.2907 90.1176 60.8863V78.3208C90.1176 80.2277 90.0001 81.4342 89.7647 81.9789C89.5296 82.5238 88.9414 82.9517 88.0002 83.2243C88.7845 83.2243 89.8825 83.1463 91.1372 83.1463C92.4706 83.1463 93.4508 83.1853 94.0391 83.2243C93.0979 82.8739 92.5097 82.4458 92.3137 81.9399C92.1177 81.4342 91.9999 80.2277 91.9999 78.3208ZM111.097 78.3208V60.8863C111.097 59.3687 111.176 58.3179 111.332 57.7342C111.489 57.1892 111.921 56.7613 112.587 56.4889C112.234 56.5277 111.45 56.5277 110.156 56.5277C109.372 56.5277 108.587 56.5277 107.764 56.4889C108.391 56.8001 108.784 57.1892 108.98 57.6952C109.136 58.2011 109.215 59.2907 109.215 60.8863V78.3208C109.215 80.2277 109.097 81.4342 108.862 81.9789C108.627 82.5238 108.038 82.9517 107.097 83.2243C107.882 83.2243 108.98 83.1463 110.234 83.1463C111.568 83.1463 112.548 83.1853 113.136 83.2243C112.195 82.8739 111.607 82.4458 111.411 81.9399C111.215 81.4342 111.097 80.2277 111.097 78.3208ZM132.821 58.3954L131.802 60.8473L138.115 77.8924C138.625 79.2544 138.899 80.3053 138.899 81.1226C138.899 82.0954 138.507 82.7959 137.684 83.2629C139.135 83.2239 139.997 83.1851 140.272 83.1851H142.86C142.703 83.0293 142.154 82.6014 142.036 82.4456C141.88 82.29 141.605 81.8231 141.331 81.0836L132.821 58.3954ZM137.645 77.5404L135.919 72.9482H126.783L124.979 77.3068C124.391 78.7468 124.077 79.8755 124.077 80.6925C124.077 82.0935 124.979 82.9108 127.371 83.1054L127.331 83.5723C126.39 83.5723 124.234 83.4555 122.979 83.4555C122.469 83.4555 121.724 83.4945 120.822 83.5335C119.92 83.5723 119.253 83.5723 118.901 83.5723L118.861 83.1054C120.9 82.7552 122.155 81.9767 123.214 79.5251L133.214 55.8251H134.272L143.37 79.9142C144.115 81.8212 145.488 82.9108 147.487 83.1054L147.448 83.5723C146.546 83.5723 145.488 83.5723 144.311 83.5335C143.096 83.4945 142.154 83.4555 141.449 83.4555C140.664 83.4555 139.645 83.4945 138.351 83.5335C137.057 83.5723 136.076 83.5723 135.37 83.5723L135.331 83.1054C135.959 82.9886 136.664 82.833 137.096 82.6772C137.527 82.5604 137.566 82.5217 137.88 82.3271C138.311 82.0547 138.507 81.5098 138.507 80.6537C138.507 80.2256 138.233 79.2137 137.645 77.5404ZM135.684 72.3287L131.606 61.2765L127.018 72.3287H135.684ZM123.606 79.3335C123.096 80.5399 122.704 81.3962 122.391 81.8632C122.038 82.3301 121.528 82.7972 120.783 83.2642C121.253 83.2642 122.587 83.1864 123.018 83.1864C123.018 82.3301 123.214 81.0459 123.606 79.3335Z" fill="#E1E7E8"/>
<path fill-rule="evenodd" clip-rule="evenodd" d="M30.3946 68.7094C30.3946 73.1848 31.3357 76.7263 33.1789 79.4115C35.0219 82.0967 37.5708 83.4197 40.7472 83.4197C43.4528 83.4197 45.6095 82.1745 47.2174 79.6449C48.8252 77.1154 49.6094 74.0411 49.6094 70.344C49.6094 65.5183 48.3938 61.6657 46.4331 59.4864C44.4724 57.3461 42.0803 56.2564 39.5316 56.2564C37.1786 56.2564 35.0612 57.4629 33.218 59.9145C31.3357 62.3662 30.3946 65.2849 30.3946 68.7094ZM25.65 69.8381C25.65 65.5185 27.0616 62.0938 29.885 59.4864C32.6693 56.9179 36.0417 55.6337 40.0022 55.6337C43.8059 55.6337 47.1785 56.9179 50.041 59.5254C52.9035 62.1328 54.3154 65.5963 54.3154 69.8381C54.3154 74.1579 52.9429 77.5824 50.1586 80.1508C47.3745 82.7582 44.0021 84.0424 40.0022 84.0424C36.5123 84.0424 33.0222 82.6414 30.2773 80.3066C27.5323 77.9715 25.65 74.1579 25.65 69.8381ZM37.1004 83.3803C34.9436 82.602 33.022 81.24 31.1791 79.0605C29.2968 76.8812 28.1203 73.3789 28.1203 69.2149C28.1203 66.2572 28.9048 63.6109 30.5124 61.2759C32.0811 58.941 34.0809 57.3064 36.5121 56.3336C33.4142 57.0731 30.9046 58.5907 28.9439 60.9647C26.944 63.3386 25.9636 66.2962 25.9636 69.8374C25.9636 73.7291 27.5714 77.2706 29.8457 79.4109C32.1202 81.5902 34.6298 82.9522 37.1004 83.3803ZM42.7474 56.5275C47.1393 58.2397 49.9234 62.8708 49.9234 70.3427C49.9234 75.9077 48.0412 80.5777 44.5513 82.7179C49.3745 80.8888 52.0019 76.0633 52.0019 69.8368C52.0019 66.3733 51.1784 63.4155 49.4921 61.0029C47.806 58.6288 45.5708 57.1112 42.7474 56.5275ZM64.6677 61.3513V68.862C65.1773 68.94 65.8048 68.9788 66.5107 68.9788C75.4514 68.9788 72.7064 55.8641 78.7453 55.8641C80.0395 55.8641 80.9413 56.7202 80.9413 57.81C80.9413 58.7829 80.0395 59.5222 79.2159 59.5222C78.9022 59.5222 78.4317 59.3666 77.765 59.0162C77.0983 58.7049 76.5885 58.5493 76.3141 58.5493C75.9612 58.5493 75.6083 59.0162 75.216 59.9893C74.824 60.9622 74.4318 62.0906 74.0398 63.297C73.6475 64.5034 73.0202 65.7099 72.1182 66.9163C71.2164 68.1227 70.1968 68.862 69.0203 69.2124C74.1573 69.2512 77.0592 71.4694 78.0004 74.8552L79.1768 79.2137C79.8433 81.7044 81.6865 82.9886 83.451 82.9886H83.7648V83.4555H81.5687C81.412 83.4555 80.9022 83.4945 80.0002 83.5335C79.0984 83.5723 78.4317 83.5723 78.0004 83.5723C76.1572 83.5723 75.2554 82.2493 74.2749 78.4744L73.1378 73.9601C72.5104 71.625 70.5106 69.6015 67.6871 69.6015C65.8833 69.6015 64.8637 69.6403 64.6677 69.6793V78.3187C64.6677 80.1478 64.9028 81.3152 65.3342 81.7822C65.7655 82.2881 66.8635 82.7162 68.6674 83.1054L68.6283 83.5723C68.1185 83.5723 67.2164 83.5723 65.844 83.5335C64.4715 83.4945 63.4128 83.4555 62.5892 83.4555C62.001 83.4555 61.06 83.4945 59.7658 83.5335C58.4717 83.5723 57.2955 83.5723 56.315 83.5723L56.2759 83.1054C58.0797 82.833 59.2169 82.3271 59.6482 81.6654C60.0796 81.0039 60.2756 79.7197 60.2756 77.7739V61.6627C60.2756 59.5999 60.0796 58.2769 59.7267 57.6932C59.3344 57.1483 58.3933 56.7592 56.9032 56.5646L56.9426 56.0977C57.7659 56.0977 58.7464 56.0977 59.8835 56.1364C60.9816 56.1754 61.8443 56.2144 62.4716 56.2144C63.8441 56.2144 66.1577 56.0977 67.6087 56.0977L67.6478 56.5646C66.2362 56.8369 65.3735 57.1873 65.099 57.6542C64.8244 58.1602 64.6677 59.3666 64.6677 61.3513ZM62.4721 78.3208V60.8863C62.4721 59.3297 62.5503 58.2789 62.7072 57.7342C62.825 57.2282 63.2563 56.8001 63.9228 56.4889C63.4914 56.5277 62.7072 56.5277 61.57 56.5277C60.7073 56.5277 59.8838 56.5277 59.0604 56.4889C59.7662 56.8001 60.1975 57.2282 60.3544 57.7342C60.5113 58.2789 60.5898 59.3297 60.5898 60.8863V78.3208C60.5898 80.1497 60.5113 81.3174 60.3151 81.8621C60.1191 82.4458 59.5309 82.8739 58.5506 83.2243C59.6486 83.2243 61.374 83.1463 61.57 83.1463C62.2367 83.1463 63.217 83.1853 64.4719 83.2243C63.5308 82.8739 62.9816 82.407 62.7856 81.9011C62.5896 81.3952 62.4721 80.1887 62.4721 78.3208ZM75.8827 57.9664C76.0396 57.8887 76.1965 57.8497 76.3534 57.8497C77.0201 57.8497 78.0004 58.3554 78.7455 58.3554C79.4904 58.3554 79.9217 57.8497 79.9217 57.2274C79.9217 56.5271 79.5297 56.1772 78.7455 56.1772C77.6081 56.1772 76.6279 56.7604 75.8827 57.9664ZM70.3539 69.9159C72.0008 70.8109 73.0204 72.1342 73.4518 73.8853L74.5889 78.3997C75.4907 81.7854 76.4712 83.2642 78.0006 83.2642C78.3535 83.2642 80.0789 83.1864 80.0789 83.1864C79.1377 82.9138 78.4319 82.4859 78.0006 81.9409C77.5692 81.435 77.1379 80.3844 76.7065 78.8276L75.4907 74.2744C74.8242 71.667 73.0989 70.1882 70.3539 69.9159ZM113.293 61.3549V78.3225C113.293 81.4357 113.999 82.6811 117.293 83.1092L117.254 83.5762C116.783 83.5762 115.92 83.5762 114.626 83.5372C113.332 83.4984 112.156 83.4594 111.097 83.4594C110.195 83.4594 109.176 83.4984 108.078 83.5372C106.98 83.5762 106.195 83.5762 105.686 83.5762L105.646 83.1092C107.097 82.8367 108.038 82.4087 108.391 81.8248C108.744 81.2411 108.901 80.0737 108.901 78.3225V69.8777C108.901 69.5274 108.823 69.4886 108.313 69.4886H94.7449C94.2744 69.4886 94.196 69.5274 94.196 69.8777V78.3225C94.196 79.9181 94.4313 81.0465 94.8627 81.6692C95.294 82.3307 96.3136 82.7979 97.843 83.1092L97.8036 83.5762C97.3332 83.5762 96.5487 83.5762 95.4116 83.5372C94.2744 83.4984 93.2157 83.4594 92.1568 83.4594C91.255 83.4594 90.0785 83.4984 88.706 83.5372C87.2944 83.5762 86.3533 83.5762 85.8435 83.5762L85.8041 83.1092C87.4904 82.8367 88.5491 82.4475 89.0589 81.9028C89.5687 81.3969 89.804 80.1904 89.804 78.3225V61.3549C89.804 59.5648 89.608 58.3586 89.2551 57.7359C88.8629 57.1522 87.9218 56.763 86.4317 56.5684L86.4708 56.1013C88.0787 56.1013 90.5883 56.2181 92.1568 56.2181C93.3724 56.2181 96.1958 56.1013 97.5292 56.1013L97.5683 56.5684C96.1174 56.8408 95.1762 57.2299 94.7842 57.7747C94.392 58.3586 94.196 59.526 94.196 61.3549V68.5155C94.196 68.8659 94.2353 68.8659 94.8627 68.8659H108.313C108.823 68.8659 108.901 68.8659 108.901 68.3989V61.3549C108.901 59.4482 108.744 58.2028 108.391 57.6581C108.038 57.1522 107.215 56.763 105.921 56.5684L105.96 56.1013C107.568 56.1013 109.646 56.2181 111.215 56.2181C112.43 56.2181 115.254 56.1013 116.587 56.1013L116.626 56.5684C115.215 56.8408 114.313 57.2299 113.921 57.7747C113.489 58.3196 113.293 59.526 113.293 61.3549ZM91.9999 78.3208V60.8863C91.9999 59.3687 92.0784 58.3179 92.2352 57.7342C92.3921 57.1892 92.8235 56.7613 93.4902 56.4889C93.1373 56.5277 92.3528 56.5277 91.0588 56.5277C90.2745 56.5277 89.4903 56.5277 88.6669 56.4889C89.2943 56.8001 89.6863 57.1892 89.8825 57.6952C90.0394 58.2011 90.1176 59.2907 90.1176 60.8863V78.3208C90.1176 80.2277 90.0001 81.4342 89.7647 81.9789C89.5296 82.5238 88.9414 82.9517 88.0002 83.2243C88.7845 83.2243 89.8825 83.1463 91.1372 83.1463C92.4706 83.1463 93.4508 83.1853 94.0391 83.2243C93.0979 82.8739 92.5097 82.4458 92.3137 81.9399C92.1177 81.4342 91.9999 80.2277 91.9999 78.3208ZM111.097 78.3208V60.8863C111.097 59.3687 111.176 58.3179 111.332 57.7342C111.489 57.1892 111.921 56.7613 112.587 56.4889C112.234 56.5277 111.45 56.5277 110.156 56.5277C109.372 56.5277 108.587 56.5277 107.764 56.4889C108.391 56.8001 108.784 57.1892 108.98 57.6952C109.136 58.2011 109.215 59.2907 109.215 60.8863V78.3208C109.215 80.2277 109.097 81.4342 108.862 81.9789C108.627 82.5238 108.038 82.9517 107.097 83.2243C107.882 83.2243 108.98 83.1463 110.234 83.1463C111.568 83.1463 112.548 83.1853 113.136 83.2243C112.195 82.8739 111.607 82.4458 111.411 81.9399C111.215 81.4342 111.097 80.2277 111.097 78.3208ZM132.821 58.3954L131.802 60.8473L138.115 77.8924C138.625 79.2544 138.899 80.3053 138.899 81.1226C138.899 82.0954 138.507 82.7959 137.684 83.2629C139.135 83.2239 139.997 83.1851 140.272 83.1851H142.86C142.703 83.0293 142.154 82.6014 142.036 82.4456C141.88 82.29 141.605 81.8231 141.331 81.0836L132.821 58.3954ZM137.645 77.5404L135.919 72.9482H126.783L124.979 77.3068C124.391 78.7468 124.077 79.8755 124.077 80.6925C124.077 82.0935 124.979 82.9108 127.371 83.1054L127.331 83.5723C126.39 83.5723 124.234 83.4555 122.979 83.4555C122.469 83.4555 121.724 83.4945 120.822 83.5335C119.92 83.5723 119.253 83.5723 118.901 83.5723L118.861 83.1054C120.9 82.7552 122.155 81.9767 123.214 79.5251L133.214 55.8251H134.272L143.37 79.9142C144.115 81.8212 145.488 82.9108 147.487 83.1054L147.448 83.5723C146.546 83.5723 145.488 83.5723 144.311 83.5335C143.096 83.4945 142.154 83.4555 141.449 83.4555C140.664 83.4555 139.645 83.4945 138.351 83.5335C137.057 83.5723 136.076 83.5723 135.37 83.5723L135.331 83.1054C135.959 82.9886 136.664 82.833 137.096 82.6772C137.527 82.5604 137.566 82.5217 137.88 82.3271C138.311 82.0547 138.507 81.5098 138.507 80.6537C138.507 80.2256 138.233 79.2137 137.645 77.5404ZM135.684 72.3287L131.606 61.2765L127.018 72.3287H135.684ZM123.606 79.3335C123.096 80.5399 122.704 81.3962 122.391 81.8632C122.038 82.3301 121.528 82.7972 120.783 83.2642C121.253 83.2642 122.587 83.1864 123.018 83.1864C123.018 82.3301 123.214 81.0459 123.606 79.3335Z" fill="#0077C0"/>
<path d="M131.727 60.8591L132.81 58.2493L141.327 80.3338L143.286 83.2678H137.448C137.748 83.1118 138.507 82.6772 138.741 81.9921C139.043 81.1033 138.732 80.2258 138.654 79.6305L131.727 60.8591Z" fill="#0077C0"/>
<path d="M132.701 60.7941L133.355 59.289L142.529 82.2739H139.477C139.787 82.1243 139.863 81.8374 140.103 81.1806C140.416 80.3288 139.932 79.3579 139.852 78.7875L132.701 60.7941Z" fill="#0077C0"/>
<path fill-rule="evenodd" clip-rule="evenodd" d="M123.606 79.3335C123.096 80.5399 122.704 81.3962 122.391 81.8632C122.038 82.3301 121.528 82.7972 120.783 83.2642C121.253 83.2642 122.587 83.1864 123.018 83.1864C123.018 82.3301 123.214 81.0459 123.606 79.3335Z" fill="#E1E7E8"/>
<path fill-rule="evenodd" clip-rule="evenodd" d="M123.606 79.3335C123.096 80.5399 122.704 81.3962 122.391 81.8632C122.038 82.3301 121.528 82.7972 120.783 83.2642C121.253 83.2642 122.587 83.1864 123.018 83.1864C123.018 82.3301 123.214 81.0459 123.606 79.3335Z" fill="#0077C0"/>
<path fill-rule="evenodd" clip-rule="evenodd" d="M111.097 78.3219V60.8874C111.097 59.3696 111.176 58.3189 111.332 57.7352C111.489 57.1903 111.921 56.7624 112.587 56.4898C112.234 56.5288 111.45 56.5288 110.156 56.5288C109.372 56.5288 108.587 56.5288 107.764 56.4898C108.391 56.8011 108.784 57.1903 108.98 57.6962C109.136 58.2021 109.215 59.2918 109.215 60.8874V78.3219C109.215 80.2288 109.097 81.435 108.862 81.9799C108.627 82.5247 108.038 82.9528 107.097 83.2252C107.882 83.2252 108.98 83.1474 110.234 83.1474C111.568 83.1474 112.548 83.1864 113.136 83.2252C112.195 82.875 111.607 82.4469 111.411 81.9409C111.215 81.435 111.097 80.2288 111.097 78.3219Z" fill="#E1E7E8"/>
<path fill-rule="evenodd" clip-rule="evenodd" d="M111.097 78.3219V60.8874C111.097 59.3696 111.176 58.3189 111.332 57.7352C111.489 57.1903 111.921 56.7624 112.587 56.4898C112.234 56.5288 111.45 56.5288 110.156 56.5288C109.372 56.5288 108.587 56.5288 107.764 56.4898C108.391 56.8011 108.784 57.1903 108.98 57.6962C109.136 58.2021 109.215 59.2918 109.215 60.8874V78.3219C109.215 80.2288 109.097 81.435 108.862 81.9799C108.627 82.5247 108.038 82.9528 107.097 83.2252C107.882 83.2252 108.98 83.1474 110.234 83.1474C111.568 83.1474 112.548 83.1864 113.136 83.2252C112.195 82.875 111.607 82.4469 111.411 81.9409C111.215 81.435 111.097 80.2288 111.097 78.3219Z" fill="#0077C0"/>
<path fill-rule="evenodd" clip-rule="evenodd" d="M91.9999 78.3219V60.8874C91.9999 59.3696 92.0784 58.3189 92.2353 57.7352C92.3922 57.1903 92.8235 56.7624 93.4902 56.4898C93.1373 56.5288 92.3528 56.5288 91.0588 56.5288C90.2745 56.5288 89.4903 56.5288 88.6669 56.4898C89.2943 56.8011 89.6863 57.1903 89.8825 57.6962C90.0394 58.2021 90.1177 59.2918 90.1177 60.8874V78.3219C90.1177 80.2288 90.0001 81.435 89.7648 81.9799C89.5296 82.5247 88.9414 82.9528 88.0002 83.2252C88.7845 83.2252 89.8825 83.1474 91.1372 83.1474C92.4706 83.1474 93.4509 83.1864 94.0391 83.2252C93.098 82.875 92.5097 82.4469 92.3137 81.9409C92.1177 81.435 91.9999 80.2288 91.9999 78.3219Z" fill="#E1E7E8"/>
<path fill-rule="evenodd" clip-rule="evenodd" d="M91.9999 78.3219V60.8874C91.9999 59.3696 92.0784 58.3189 92.2353 57.7352C92.3922 57.1903 92.8235 56.7624 93.4902 56.4898C93.1373 56.5288 92.3528 56.5288 91.0588 56.5288C90.2745 56.5288 89.4903 56.5288 88.6669 56.4898C89.2943 56.8011 89.6863 57.1903 89.8825 57.6962C90.0394 58.2021 90.1177 59.2918 90.1177 60.8874V78.3219C90.1177 80.2288 90.0001 81.435 89.7648 81.9799C89.5296 82.5247 88.9414 82.9528 88.0002 83.2252C88.7845 83.2252 89.8825 83.1474 91.1372 83.1474C92.4706 83.1474 93.4509 83.1864 94.0391 83.2252C93.098 82.875 92.5097 82.4469 92.3137 81.9409C92.1177 81.435 91.9999 80.2288 91.9999 78.3219Z" fill="#0077C0"/>
<path fill-rule="evenodd" clip-rule="evenodd" d="M70.3539 69.9156C72.0008 70.8107 73.0204 72.1339 73.4518 73.8851L74.5889 78.3994C75.4907 81.7851 76.4712 83.2639 78.0006 83.2639C78.3535 83.2639 80.0789 83.1861 80.0789 83.1861C79.1377 82.9136 78.4319 82.4856 78.0006 81.9407C77.5692 81.4348 77.1379 80.3841 76.7065 78.8276L75.4907 74.2742C74.8242 71.667 73.0989 70.188 70.3539 69.9156Z" fill="#E1E7E8"/>
<path fill-rule="evenodd" clip-rule="evenodd" d="M70.3539 69.9156C72.0008 70.8107 73.0204 72.1339 73.4518 73.8851L74.5889 78.3994C75.4907 81.7851 76.4712 83.2639 78.0006 83.2639C78.3535 83.2639 80.0789 83.1861 80.0789 83.1861C79.1377 82.9136 78.4319 82.4856 78.0006 81.9407C77.5692 81.4348 77.1379 80.3841 76.7065 78.8276L75.4907 74.2742C74.8242 71.667 73.0989 70.188 70.3539 69.9156Z" fill="#0077C0"/>
<path fill-rule="evenodd" clip-rule="evenodd" d="M72.3849 71.0381C73.3004 71.6762 74.024 72.7828 74.5725 74.3533L75.998 78.399C77.0887 81.4275 77.9555 82.4038 78.5076 82.506C79.0597 82.6084 79.3917 82.506 79.3917 82.506C78.9171 82.3626 78.5412 81.7361 78.2383 81.2818C77.9431 80.8635 77.5372 79.9412 77.028 78.5507L75.5598 74.478C74.7321 72.1425 73.6627 70.9734 72.3849 71.0381Z" fill="#E1E7E8"/>
<path fill-rule="evenodd" clip-rule="evenodd" d="M72.3849 71.0381C73.3004 71.6762 74.024 72.7828 74.5725 74.3533L75.998 78.399C77.0887 81.4275 77.9555 82.4038 78.5076 82.506C79.0597 82.6084 79.3917 82.506 79.3917 82.506C78.9171 82.3626 78.5412 81.7361 78.2383 81.2818C77.9431 80.8635 77.5372 79.9412 77.028 78.5507L75.5598 74.478C74.7321 72.1425 73.6627 70.9734 72.3849 71.0381Z" fill="#0077C0"/>
<path fill-rule="evenodd" clip-rule="evenodd" d="M75.8828 57.9679C76.0396 57.8902 76.1965 57.8512 76.3534 57.8512C77.0201 57.8512 78.0004 58.3569 78.7455 58.3569C79.4904 58.3569 79.9218 57.8512 79.9218 57.2289C79.9218 56.5286 79.5297 56.1786 78.7455 56.1786C77.6081 56.1786 76.6279 56.7622 75.8828 57.9679Z" fill="#E1E7E8"/>
<path fill-rule="evenodd" clip-rule="evenodd" d="M75.8828 57.9679C76.0396 57.8902 76.1965 57.8512 76.3534 57.8512C77.0201 57.8512 78.0004 58.3569 78.7455 58.3569C79.4904 58.3569 79.9218 57.8512 79.9218 57.2289C79.9218 56.5286 79.5297 56.1786 78.7455 56.1786C77.6081 56.1786 76.6279 56.7622 75.8828 57.9679Z" fill="#0077C0"/>
<path fill-rule="evenodd" clip-rule="evenodd" d="M77.5829 57.3227C77.668 57.3073 77.7484 57.3105 77.8243 57.3326C78.1462 57.4262 78.5594 57.8081 78.9191 57.9128C79.2791 58.0174 79.5477 57.8336 79.6219 57.5329C79.7055 57.1946 79.5578 56.9704 79.179 56.8603C78.6297 56.7006 78.0868 56.8449 77.5829 57.3227Z" fill="#E1E7E8"/>
<path fill-rule="evenodd" clip-rule="evenodd" d="M77.5829 57.3227C77.668 57.3073 77.7484 57.3105 77.8243 57.3326C78.1462 57.4262 78.5594 57.8081 78.9191 57.9128C79.2791 58.0174 79.5477 57.8336 79.6219 57.5329C79.7055 57.1946 79.5578 56.9704 79.179 56.8603C78.6297 56.7006 78.0868 56.8449 77.5829 57.3227Z" fill="#0077C0"/>
<path fill-rule="evenodd" clip-rule="evenodd" d="M62.4721 78.3219V60.8874C62.4721 59.3308 62.5503 58.2799 62.7072 57.7352C62.825 57.2293 63.2563 56.8011 63.9228 56.4898C63.4914 56.5288 62.7072 56.5288 61.57 56.5288C60.7073 56.5288 59.8838 56.5288 59.0604 56.4898C59.7662 56.8011 60.1975 57.2293 60.3544 57.7352C60.5113 58.2799 60.5898 59.3308 60.5898 60.8874V78.3219C60.5898 80.1508 60.5113 81.3184 60.3151 81.8632C60.1191 82.4469 59.5309 82.875 58.5506 83.2252C59.6486 83.2252 61.374 83.1474 61.57 83.1474C62.2367 83.1474 63.217 83.1864 64.4719 83.2252C63.5308 82.875 62.9816 82.4081 62.7856 81.9022C62.5896 81.3962 62.4721 80.1898 62.4721 78.3219Z" fill="#E1E7E8"/>
<path fill-rule="evenodd" clip-rule="evenodd" d="M62.4721 78.3219V60.8874C62.4721 59.3308 62.5503 58.2799 62.7072 57.7352C62.825 57.2293 63.2563 56.8011 63.9228 56.4898C63.4914 56.5288 62.7072 56.5288 61.57 56.5288C60.7073 56.5288 59.8838 56.5288 59.0604 56.4898C59.7662 56.8011 60.1975 57.2293 60.3544 57.7352C60.5113 58.2799 60.5898 59.3308 60.5898 60.8874V78.3219C60.5898 80.1508 60.5113 81.3184 60.3151 81.8632C60.1191 82.4469 59.5309 82.875 58.5506 83.2252C59.6486 83.2252 61.374 83.1474 61.57 83.1474C62.2367 83.1474 63.217 83.1864 64.4719 83.2252C63.5308 82.875 62.9816 82.4081 62.7856 81.9022C62.5896 81.3962 62.4721 80.1898 62.4721 78.3219Z" fill="#0077C0"/>
<path fill-rule="evenodd" clip-rule="evenodd" d="M61.93 77.7547V61.4482C61.93 59.9921 61.9642 59.0094 62.0326 58.4998C62.0839 58.0267 62.2718 57.6262 62.5625 57.3349C62.3744 57.3714 62.0326 57.3714 61.5367 57.3714C61.1607 57.3714 60.8016 57.3714 60.4428 57.3349C60.7506 57.6262 60.9384 58.0267 61.0068 58.4998C61.0752 59.0094 61.1094 59.9921 61.1094 61.4482V77.7547C61.1094 79.4653 61.0752 80.5573 60.9897 81.0669C60.9042 81.6129 60.648 82.0132 60.2205 82.3408C60.6993 82.3408 61.4512 82.2679 61.5367 82.2679C61.8274 82.2679 62.2547 82.3044 62.8017 82.3408C62.3915 82.0132 62.1521 81.5764 62.0668 81.1033C61.9813 80.6302 61.93 79.5017 61.93 77.7547Z" fill="#E1E7E8"/>
<path fill-rule="evenodd" clip-rule="evenodd" d="M61.93 77.7547V61.4482C61.93 59.9921 61.9642 59.0094 62.0326 58.4998C62.0839 58.0267 62.2718 57.6262 62.5625 57.3349C62.3744 57.3714 62.0326 57.3714 61.5367 57.3714C61.1607 57.3714 60.8016 57.3714 60.4428 57.3349C60.7506 57.6262 60.9384 58.0267 61.0068 58.4998C61.0752 59.0094 61.1094 59.9921 61.1094 61.4482V77.7547C61.1094 79.4653 61.0752 80.5573 60.9897 81.0669C60.9042 81.6129 60.648 82.0132 60.2205 82.3408C60.6993 82.3408 61.4512 82.2679 61.5367 82.2679C61.8274 82.2679 62.2547 82.3044 62.8017 82.3408C62.3915 82.0132 62.1521 81.5764 62.0668 81.1033C61.9813 80.6302 61.93 79.5017 61.93 77.7547Z" fill="#0077C0"/>
<path fill-rule="evenodd" clip-rule="evenodd" d="M91.4387 77.7547V61.4482C91.4387 59.9921 91.4726 59.0094 91.541 58.4998C91.5923 58.0267 91.7804 57.6262 92.0711 57.3349C91.883 57.3714 91.541 57.3714 91.0453 57.3714C90.6694 57.3714 90.3103 57.3714 89.9514 57.3349C90.259 57.6262 90.4471 58.0267 90.5155 58.4998C90.5839 59.0094 90.6181 59.9921 90.6181 61.4482V77.7547C90.6181 79.4653 90.5839 80.5573 90.4984 81.0669C90.4129 81.6129 90.1564 82.0132 89.7291 82.3408C90.2077 82.3408 90.9598 82.2679 91.0453 82.2679C91.336 82.2679 91.7633 82.3044 92.3103 82.3408C91.9001 82.0132 91.6607 81.5764 91.5752 81.1033C91.4897 80.6302 91.4387 79.5017 91.4387 77.7547Z" fill="#0077C0"/>
<path fill-rule="evenodd" clip-rule="evenodd" d="M91.4387 77.7547V61.4482C91.4387 59.9921 91.4726 59.0094 91.541 58.4998C91.5923 58.0267 91.7804 57.6262 92.0711 57.3349C91.883 57.3714 91.541 57.3714 91.0453 57.3714C90.6694 57.3714 90.3103 57.3714 89.9514 57.3349C90.259 57.6262 90.4471 58.0267 90.5155 58.4998C90.5839 59.0094 90.6181 59.9921 90.6181 61.4482V77.7547C90.6181 79.4653 90.5839 80.5573 90.4984 81.0669C90.4129 81.6129 90.1564 82.0132 89.7291 82.3408C90.2077 82.3408 90.9598 82.2679 91.0453 82.2679C91.336 82.2679 91.7633 82.3044 92.3103 82.3408C91.9001 82.0132 91.6607 81.5764 91.5752 81.1033C91.4897 80.6302 91.4387 79.5017 91.4387 77.7547Z" fill="#0077C0"/>
<path fill-rule="evenodd" clip-rule="evenodd" d="M110.536 77.7547V61.4482C110.536 59.9921 110.57 59.0094 110.638 58.4998C110.69 58.0267 110.877 57.6262 111.168 57.3349C110.98 57.3714 110.638 57.3714 110.142 57.3714C109.766 57.3714 109.408 57.3714 109.048 57.3349C109.356 57.6262 109.544 58.0267 109.613 58.4998C109.681 59.0094 109.715 59.9921 109.715 61.4482V77.7547C109.715 79.4653 109.681 80.5573 109.595 81.0669C109.51 81.6129 109.254 82.0132 108.826 82.3408C109.305 82.3408 110.057 82.2679 110.142 82.2679C110.433 82.2679 110.86 82.3044 111.407 82.3408C110.997 82.0132 110.758 81.5764 110.673 81.1033C110.587 80.6302 110.536 79.5017 110.536 77.7547Z" fill="#0077C0"/>
<path fill-rule="evenodd" clip-rule="evenodd" d="M110.536 77.7547V61.4482C110.536 59.9921 110.57 59.0094 110.638 58.4998C110.69 58.0267 110.877 57.6262 111.168 57.3349C110.98 57.3714 110.638 57.3714 110.142 57.3714C109.766 57.3714 109.408 57.3714 109.048 57.3349C109.356 57.6262 109.544 58.0267 109.613 58.4998C109.681 59.0094 109.715 59.9921 109.715 61.4482V77.7547C109.715 79.4653 109.681 80.5573 109.595 81.0669C109.51 81.6129 109.254 82.0132 108.826 82.3408C109.305 82.3408 110.057 82.2679 110.142 82.2679C110.433 82.2679 110.86 82.3044 111.407 82.3408C110.997 82.0132 110.758 81.5764 110.673 81.1033C110.587 80.6302 110.536 79.5017 110.536 77.7547Z" fill="#0077C0"/>
<path fill-rule="evenodd" clip-rule="evenodd" d="M37.1004 83.3807C34.9436 82.6024 33.022 81.2402 31.1791 79.0609C29.2968 76.8817 28.1203 73.3792 28.1203 69.2152C28.1203 66.2576 28.9048 63.6114 30.5124 61.2763C32.0811 58.9414 34.0809 57.3069 36.5121 56.334C33.4142 57.0733 30.9046 58.5911 28.9439 60.9649C26.944 63.3388 25.9636 66.2966 25.9636 69.8379C25.9636 73.7295 27.5714 77.2708 29.8457 79.4113C32.1202 81.5906 34.6298 82.9526 37.1004 83.3807Z" fill="#E1E7E8"/>
<path fill-rule="evenodd" clip-rule="evenodd" d="M37.1004 83.3807C34.9436 82.6024 33.022 81.2402 31.1791 79.0609C29.2968 76.8817 28.1203 73.3792 28.1203 69.2152C28.1203 66.2576 28.9048 63.6114 30.5124 61.2763C32.0811 58.9414 34.0809 57.3069 36.5121 56.334C33.4142 57.0733 30.9046 58.5911 28.9439 60.9649C26.944 63.3388 25.9636 66.2966 25.9636 69.8379C25.9636 73.7295 27.5714 77.2708 29.8457 79.4113C32.1202 81.5906 34.6298 82.9526 37.1004 83.3807Z" fill="#0077C0"/>
<path fill-rule="evenodd" clip-rule="evenodd" d="M33.9933 81.54C32.6383 80.8614 31.4313 79.6738 30.2736 77.7737C29.0912 75.8737 28.3522 72.8199 28.3522 69.1892C28.3522 66.6105 28.8449 64.3033 29.8549 62.2674C30.8403 60.2314 32.0965 58.8064 33.6237 57.9581C31.6777 58.6029 30.1011 59.9261 28.8695 61.9959C27.6133 64.0657 26.9975 66.6444 26.9975 69.7322C26.9975 73.1252 28.0074 76.2129 29.4361 78.0791C30.8649 79.9794 32.4413 81.1669 33.9933 81.54Z" fill="#E1E7E8"/>
<path fill-rule="evenodd" clip-rule="evenodd" d="M33.9933 81.54C32.6383 80.8614 31.4313 79.6738 30.2736 77.7737C29.0912 75.8737 28.3522 72.8199 28.3522 69.1892C28.3522 66.6105 28.8449 64.3033 29.8549 62.2674C30.8403 60.2314 32.0965 58.8064 33.6237 57.9581C31.6777 58.6029 30.1011 59.9261 28.8695 61.9959C27.6133 64.0657 26.9975 66.6444 26.9975 69.7322C26.9975 73.1252 28.0074 76.2129 29.4361 78.0791C30.8649 79.9794 32.4413 81.1669 33.9933 81.54Z" fill="white"/>
<path fill-rule="evenodd" clip-rule="evenodd" d="M33.9933 81.54C32.6383 80.8614 31.4313 79.6738 30.2736 77.7737C29.0912 75.8737 28.3522 72.8199 28.3522 69.1892C28.3522 66.6105 28.8449 64.3033 29.8549 62.2674C30.8403 60.2314 32.0965 58.8064 33.6237 57.9581C31.6777 58.6029 30.1011 59.9261 28.8695 61.9959C27.6133 64.0657 26.9975 66.6444 26.9975 69.7322C26.9975 73.1252 28.0074 76.2129 29.4361 78.0791C30.8649 79.9794 32.4413 81.1669 33.9933 81.54Z" fill="#E1E7E8"/>
<path fill-rule="evenodd" clip-rule="evenodd" d="M33.9933 81.54C32.6383 80.8614 31.4313 79.6738 30.2736 77.7737C29.0912 75.8737 28.3522 72.8199 28.3522 69.1892C28.3522 66.6105 28.8449 64.3033 29.8549 62.2674C30.8403 60.2314 32.0965 58.8064 33.6237 57.9581C31.6777 58.6029 30.1011 59.9261 28.8695 61.9959C27.6133 64.0657 26.9975 66.6444 26.9975 69.7322C26.9975 73.1252 28.0074 76.2129 29.4361 78.0791C30.8649 79.9794 32.4413 81.1669 33.9933 81.54Z" fill="#0077C0"/>
<path fill-rule="evenodd" clip-rule="evenodd" d="M45.6724 81.54C47.0273 80.8614 48.2344 79.6738 49.392 77.7737C50.5745 75.8737 51.3134 72.8199 51.3134 69.1892C51.3134 66.6105 50.8208 64.3033 49.8108 62.2674C48.8256 60.2314 47.5692 58.8064 46.0419 57.9581C47.9879 58.6029 49.5645 59.9261 50.7962 61.9959C52.0524 64.0657 52.6682 66.6444 52.6682 69.7322C52.6682 73.1252 51.6582 76.2129 50.2295 78.0791C48.8008 79.9794 47.2244 81.1669 45.6724 81.54Z" fill="#E1E7E8"/>
<path fill-rule="evenodd" clip-rule="evenodd" d="M45.6724 81.54C47.0273 80.8614 48.2344 79.6738 49.392 77.7737C50.5745 75.8737 51.3134 72.8199 51.3134 69.1892C51.3134 66.6105 50.8208 64.3033 49.8108 62.2674C48.8256 60.2314 47.5692 58.8064 46.0419 57.9581C47.9879 58.6029 49.5645 59.9261 50.7962 61.9959C52.0524 64.0657 52.6682 66.6444 52.6682 69.7322C52.6682 73.1252 51.6582 76.2129 50.2295 78.0791C48.8008 79.9794 47.2244 81.1669 45.6724 81.54Z" fill="#0077C0"/>
<path fill-rule="evenodd" clip-rule="evenodd" d="M42.7474 56.5288C47.1394 58.2411 49.9235 62.8721 49.9235 70.344C49.9235 75.909 48.0412 80.5789 44.5513 82.7194C49.3745 80.8903 52.002 76.0648 52.002 69.8381C52.002 66.3746 51.1784 63.417 49.4921 61.0041C47.806 58.6303 45.5709 57.1125 42.7474 56.5288Z" fill="#E1E7E8"/>
<path fill-rule="evenodd" clip-rule="evenodd" d="M42.7474 56.5288C47.1394 58.2411 49.9235 62.8721 49.9235 70.344C49.9235 75.909 48.0412 80.5789 44.5513 82.7194C49.3745 80.8903 52.002 76.0648 52.002 69.8381C52.002 66.3746 51.1784 63.417 49.4921 61.0041C47.806 58.6303 45.5709 57.1125 42.7474 56.5288Z" fill="#0077C0"/>
</svg>
