<svg width="57" height="55" viewBox="0 0 57 55" fill="none" xmlns="http://www.w3.org/2000/svg">
<path d="M57 43.6133C57 43.0199 56.5016 42.5391 55.8867 42.5391H17.5898V33.3008C17.5898 32.7074 17.0915 32.2266 16.4766 32.2266H5.78906C5.17415 32.2266 4.67578 32.7074 4.67578 33.3008V42.5391H1.11328C0.498367 42.5391 0 43.0199 0 43.6133C0 44.2066 0.498367 44.6875 1.11328 44.6875H1.58512C0.599258 45.7819 0 47.209 0 48.7695C0 50.3301 0.599258 51.7572 1.58512 52.8516H1.11328C0.498367 52.8516 0 53.3324 0 53.9258C0 54.5191 0.498367 55 1.11328 55H55.8867C56.5016 55 57 54.5191 57 53.9258C57 53.3324 56.5016 52.8516 55.8867 52.8516H55.4149C56.4007 51.7572 57 50.3301 57 48.7695C57 47.209 56.4007 45.7819 55.4149 44.6875H55.8867C56.5016 44.6875 57 44.2066 57 43.6133ZM8.47703 42.5391L11.1328 39.976L13.7886 42.5391H8.47703ZM15.3633 41.0196L12.7075 38.457L15.3633 35.894V41.0196ZM11.1328 36.9376L8.47703 34.375H13.789L11.1328 36.9376ZM9.55813 38.457L6.90234 41.0196V35.894L9.55813 38.457ZM16.4766 44.6875H23.6281C22.6422 45.7819 22.043 47.209 22.043 48.7695C22.043 50.3301 22.6422 51.7572 23.6281 52.8516H11.3289C12.3148 51.7572 12.9141 50.3301 12.9141 48.7695C12.9141 47.209 12.3148 45.7819 11.3289 44.6875H16.4766ZM24.2695 48.7695C24.2695 46.5187 26.1673 44.6875 28.5 44.6875C30.8327 44.6875 32.7305 46.5187 32.7305 48.7695C32.7305 51.0204 30.8327 52.8516 28.5 52.8516C26.1673 52.8516 24.2695 51.0204 24.2695 48.7695ZM33.3719 44.6875H45.6711C44.6852 45.7819 44.0859 47.209 44.0859 48.7695C44.0859 50.3301 44.6852 51.7572 45.6711 52.8516H33.3719C34.3578 51.7572 34.957 50.3301 34.957 48.7695C34.957 47.209 34.3578 45.7819 33.3719 44.6875ZM2.22656 48.7695C2.22656 46.5187 4.12436 44.6875 6.45703 44.6875C8.7897 44.6875 10.6875 46.5187 10.6875 48.7695C10.6875 51.0204 8.7897 52.8516 6.45703 52.8516C4.12436 52.8516 2.22656 51.0204 2.22656 48.7695ZM54.7734 48.7695C54.7734 51.0204 52.8756 52.8516 50.543 52.8516C48.2103 52.8516 46.3125 51.0204 46.3125 48.7695C46.3125 46.5187 48.2103 44.6875 50.543 44.6875C52.8756 44.6875 54.7734 46.5187 54.7734 48.7695Z" fill="#0077C0"/>
<path d="M28.5 47.6953C28.2073 47.6953 27.9199 47.8103 27.7129 48.01C27.5059 48.2098 27.3867 48.4871 27.3867 48.7695C27.3867 49.0519 27.5059 49.3293 27.7129 49.529C27.9199 49.7288 28.2073 49.8438 28.5 49.8438C28.7927 49.8438 29.0801 49.7288 29.2871 49.529C29.4941 49.3293 29.6133 49.0519 29.6133 48.7695C29.6133 48.4871 29.4941 48.2098 29.2871 48.01C29.0801 47.8103 28.7927 47.6953 28.5 47.6953Z" fill="#0077C0"/>
<path d="M50.543 49.8438C50.8356 49.8438 51.1231 49.7288 51.3301 49.529C51.5371 49.3293 51.6562 49.0519 51.6562 48.7695C51.6562 48.4871 51.5371 48.2098 51.3301 48.01C51.1231 47.8103 50.8356 47.6953 50.543 47.6953C50.2503 47.6953 49.9628 47.8103 49.7558 48.01C49.5488 48.2098 49.4297 48.4871 49.4297 48.7695C49.4297 49.0519 49.5488 49.3293 49.7558 49.529C49.9628 49.7288 50.2503 49.8438 50.543 49.8438Z" fill="#0077C0"/>
<path d="M6.45703 47.6953C6.16436 47.6953 5.87691 47.8103 5.66991 48.01C5.46291 48.2098 5.34375 48.4871 5.34375 48.7695C5.34375 49.0519 5.46291 49.3293 5.66991 49.529C5.87691 49.7288 6.16436 49.8438 6.45703 49.8438C6.7497 49.8438 7.03716 49.7288 7.24416 49.529C7.45116 49.3293 7.57031 49.0519 7.57031 48.7695C7.57031 48.4871 7.45116 48.2098 7.24416 48.01C7.03716 47.8103 6.7497 47.6953 6.45703 47.6953Z" fill="#0077C0"/>
<path d="M29.3015 6.98997C29.5085 6.79024 29.6276 6.51287 29.6276 6.23047C29.6276 5.94765 29.5085 5.6707 29.3015 5.47096C29.0945 5.27122 28.8075 5.15625 28.5144 5.15625C28.2204 5.15625 27.9347 5.27122 27.7272 5.47096C27.5194 5.6707 27.4011 5.94765 27.4011 6.23047C27.4011 6.51287 27.5194 6.79024 27.7272 6.98997C27.9347 7.18971 28.2204 7.30469 28.5144 7.30469C28.8075 7.30469 29.0945 7.18971 29.3015 6.98997Z" fill="#0077C0"/>
<path d="M11.1328 3.00781C10.8401 3.00781 10.5527 3.12279 10.3457 3.32253C10.1387 3.52226 10.0195 3.79921 10.0195 4.08203C10.0195 4.36443 10.1387 4.6418 10.3457 4.84154C10.5527 5.04128 10.8401 5.15625 11.1328 5.15625C11.4255 5.15625 11.7129 5.04128 11.9199 4.84154C12.1269 4.6418 12.2461 4.36443 12.2461 4.08203C12.2461 3.79963 12.1269 3.52226 11.9199 3.32253C11.7129 3.12279 11.4255 3.00781 11.1328 3.00781Z" fill="#0077C0"/>
<path d="M55.8867 0H1.11328C0.498367 0 0 0.480881 0 1.07422V6.23047C0 6.82381 0.498367 7.30469 1.11328 7.30469H6.0339C6.1374 7.79522 6.58662 8.16406 7.125 8.16406H10.0195V13.4303L1.71254 19.4904C1.43422 19.6935 1.27071 20.0107 1.27071 20.3472V28.1806C1.27071 28.7735 1.76907 29.2548 2.38399 29.2548C2.9989 29.2548 3.49727 28.7735 3.49727 28.1806V20.8818L11.1328 15.3114L18.7684 20.8818V28.1802C18.7684 28.7735 19.2667 29.2544 19.8816 29.2544C20.4966 29.2544 20.9949 28.7735 20.9949 28.1802V20.3472C20.9949 20.0107 20.8314 19.6935 20.5531 19.4904L12.2461 13.4303V8.16406H15.1406C15.6794 8.16406 16.1282 7.79522 16.2317 7.30469H24.0838C24.6988 7.30469 25.1971 6.82381 25.1971 6.23047C25.1971 5.63713 24.6988 5.15625 24.0838 5.15625H16.2539V2.14844H40.9879V5.15625H33.0645C32.4495 5.15625 31.9512 5.63713 31.9512 6.23047C31.9512 6.82381 32.4495 7.30469 33.0645 7.30469H41.0101C41.1131 7.7948 41.5624 8.16406 42.1012 8.16406H44.9957V13.4303L36.6887 19.4904C36.4104 19.6935 36.2469 20.0107 36.2469 20.3472V27.3926C36.2469 27.821 36.5104 28.2083 36.9179 28.3787L39.6519 29.52V32.0117C39.6519 32.6051 40.1503 33.0859 40.7652 33.0859H51.4527C52.0672 33.0859 52.566 32.6051 52.566 32.0117V29.5335L55.304 28.3766C55.7093 28.2054 55.9711 27.8193 55.9711 27.3926V20.3472C55.9711 20.0107 55.8071 19.6935 55.5288 19.4904L47.2223 13.4303V8.16406H50.1168C50.6552 8.16406 51.1044 7.79522 51.2075 7.30469H55.8867C56.5016 7.30469 57 6.82381 57 6.23047V1.07422C57 0.480881 56.5016 0 55.8867 0V0ZM41.8785 24.2924L44.5343 26.8555L41.8785 29.4181V24.2924ZM46.109 28.3745L48.7648 30.9375H43.4528L46.109 28.3745ZM47.6832 26.8555L50.3394 24.2929V29.4185L47.6832 26.8555ZM46.109 25.336L43.4528 22.7734H48.7648L46.109 25.336ZM53.7445 26.6901L52.566 27.1882V21.6992C52.566 21.1059 52.0676 20.625 51.4527 20.625H40.7652C40.1503 20.625 39.6519 21.1059 39.6519 21.6992V27.179L38.4734 26.6868V20.8818L46.109 15.3114L53.7445 20.8818V26.6901ZM49.0035 6.01562H43.2144V2.14844H49.0035V6.01562ZM2.22656 2.14844H6.01172V5.15625H2.22656V2.14844ZM8.23828 2.14844H14.0273V6.01562H8.23828V2.14844ZM54.7734 5.15625H51.2301V2.14844H54.7734V5.15625Z" fill="#0077C0"/>
<path d="M45.3219 4.84154C45.5289 5.04128 45.8159 5.15625 46.109 5.15625C46.4017 5.15625 46.6887 5.04128 46.8957 4.84154C47.1031 4.6418 47.2223 4.36443 47.2223 4.08203C47.2223 3.79921 47.1031 3.52226 46.8957 3.32253C46.6887 3.12279 46.4017 3.00781 46.109 3.00781C45.8159 3.00781 45.5289 3.12279 45.3219 3.32253C45.1144 3.52226 44.9957 3.79921 44.9957 4.08203C44.9957 4.36443 45.1144 4.6418 45.3219 4.84154Z" fill="#0077C0"/>
<path d="M26.2069 31.6353C26.2069 32.2287 26.7052 32.7095 27.3202 32.7095H36.5608C37.1758 32.7095 37.6741 32.2287 37.6741 31.6353C37.6741 31.042 37.1758 30.5611 36.5608 30.5611H27.3202C26.7052 30.5611 26.2069 31.042 26.2069 31.6353Z" fill="#0077C0"/>
<path d="M22.6996 30.5615C22.407 30.5615 22.1199 30.6752 21.9125 30.8762C21.7055 31.076 21.5863 31.3521 21.5863 31.6357C21.5863 31.9181 21.7055 32.1943 21.9125 32.3952C22.1199 32.595 22.407 32.71 22.6996 32.71C22.9927 32.71 23.2798 32.595 23.4868 32.3952C23.6938 32.1943 23.8129 31.9181 23.8129 31.6357C23.8129 31.3521 23.6938 31.076 23.4868 30.8762C23.2798 30.6752 22.9927 30.5615 22.6996 30.5615Z" fill="#0077C0"/>
<path d="M23.7407 27.3389C23.7407 27.9322 24.2391 28.4131 24.854 28.4131H31.9403C32.5552 28.4131 33.0536 27.9322 33.0536 27.3389C33.0536 26.7455 32.5552 26.2646 31.9403 26.2646H24.854C24.2391 26.2646 23.7407 26.7455 23.7407 27.3389Z" fill="#0077C0"/>
</svg>
