<svg width="105" height="58" viewBox="0 0 105 58" fill="none" xmlns="http://www.w3.org/2000/svg">
<path d="M16.1875 44.9219V49H0.796875C0.963542 47.4583 1.46354 46 2.29688 44.625C3.13021 43.2396 4.77604 41.4062 7.23438 39.125C9.21354 37.2812 10.4271 36.0312 10.875 35.375C11.4792 34.4688 11.7812 33.5729 11.7812 32.6875C11.7812 31.7083 11.5156 30.9583 10.9844 30.4375C10.4635 29.9062 9.73958 29.6406 8.8125 29.6406C7.89583 29.6406 7.16667 29.9167 6.625 30.4688C6.08333 31.0208 5.77083 31.9375 5.6875 33.2188L1.3125 32.7812C1.57292 30.3646 2.39062 28.6302 3.76562 27.5781C5.14062 26.526 6.85938 26 8.92188 26C11.1823 26 12.9583 26.6094 14.25 27.8281C15.5417 29.0469 16.1875 30.5625 16.1875 32.375C16.1875 33.4062 16 34.3906 15.625 35.3281C15.2604 36.2552 14.6771 37.2292 13.875 38.25C13.3438 38.9271 12.3854 39.901 11 41.1719C9.61458 42.4427 8.73438 43.2865 8.35938 43.7031C7.99479 44.1198 7.69792 44.526 7.46875 44.9219H16.1875ZM28.1719 43.7031L32.4219 43.2344C32.526 44.099 32.7969 44.7396 33.2344 45.1562C33.6719 45.5729 34.25 45.7812 34.9688 45.7812C35.875 45.7812 36.6458 45.3646 37.2812 44.5312C37.9167 43.6979 38.3229 41.9688 38.5 39.3438C37.3958 40.625 36.0156 41.2656 34.3594 41.2656C32.5573 41.2656 31 40.5729 29.6875 39.1875C28.3854 37.7917 27.7344 35.9792 27.7344 33.75C27.7344 31.4271 28.4219 29.5573 29.7969 28.1406C31.1823 26.7135 32.9427 26 35.0781 26C37.401 26 39.3073 26.901 40.7969 28.7031C42.2865 30.4948 43.0312 33.4479 43.0312 37.5625C43.0312 41.75 42.2552 44.7708 40.7031 46.625C39.151 48.4792 37.1302 49.4062 34.6406 49.4062C32.849 49.4062 31.401 48.9323 30.2969 47.9844C29.1927 47.026 28.4844 45.599 28.1719 43.7031ZM38.1094 34.1094C38.1094 32.6927 37.7812 31.5938 37.125 30.8125C36.4792 30.0312 35.7292 29.6406 34.875 29.6406C34.0625 29.6406 33.3854 29.9635 32.8438 30.6094C32.3125 31.2448 32.0469 32.2917 32.0469 33.75C32.0469 35.2292 32.3385 36.3177 32.9219 37.0156C33.5052 37.7031 34.2344 38.0469 35.1094 38.0469C35.9531 38.0469 36.6615 37.7135 37.2344 37.0469C37.8177 36.3802 38.1094 35.401 38.1094 34.1094ZM60.7188 44.9219V49H45.3281C45.4948 47.4583 45.9948 46 46.8281 44.625C47.6615 43.2396 49.3073 41.4062 51.7656 39.125C53.7448 37.2812 54.9583 36.0312 55.4062 35.375C56.0104 34.4688 56.3125 33.5729 56.3125 32.6875C56.3125 31.7083 56.0469 30.9583 55.5156 30.4375C54.9948 29.9062 54.2708 29.6406 53.3438 29.6406C52.4271 29.6406 51.6979 29.9167 51.1562 30.4688C50.6146 31.0208 50.3021 31.9375 50.2188 33.2188L45.8438 32.7812C46.1042 30.3646 46.9219 28.6302 48.2969 27.5781C49.6719 26.526 51.3906 26 53.4531 26C55.7135 26 57.4896 26.6094 58.7812 27.8281C60.0729 29.0469 60.7188 30.5625 60.7188 32.375C60.7188 33.4062 60.5312 34.3906 60.1562 35.3281C59.7917 36.2552 59.2083 37.2292 58.4062 38.25C57.875 38.9271 56.9167 39.901 55.5312 41.1719C54.1458 42.4427 53.2656 43.2865 52.8906 43.7031C52.526 44.1198 52.2292 44.526 52 44.9219H60.7188ZM71.125 26C73.3438 26 75.0781 26.7917 76.3281 28.375C77.8177 30.25 78.5625 33.3594 78.5625 37.7031C78.5625 42.0365 77.8125 45.151 76.3125 47.0469C75.0729 48.6094 73.3438 49.3906 71.125 49.3906C68.8958 49.3906 67.099 48.5365 65.7344 46.8281C64.3698 45.1094 63.6875 42.0521 63.6875 37.6562C63.6875 33.3438 64.4375 30.2396 65.9375 28.3438C67.1771 26.7812 68.9062 26 71.125 26ZM71.125 29.6406C70.5938 29.6406 70.1198 29.8125 69.7031 30.1562C69.2865 30.4896 68.9635 31.0938 68.7344 31.9688C68.4323 33.1042 68.2812 35.0156 68.2812 37.7031C68.2812 40.3906 68.4167 42.2396 68.6875 43.25C68.9583 44.25 69.2969 44.9167 69.7031 45.25C70.1198 45.5833 70.5938 45.75 71.125 45.75C71.6562 45.75 72.1302 45.5833 72.5469 45.25C72.9635 44.9062 73.2865 44.2969 73.5156 43.4219C73.8177 42.2969 73.9688 40.3906 73.9688 37.7031C73.9688 35.0156 73.8333 33.1719 73.5625 32.1719C73.2917 31.1615 72.9479 30.4896 72.5312 30.1562C72.125 29.8125 71.6562 29.6406 71.125 29.6406Z" fill="#0077C0"/>
<path d="M99.6875 41.3125V44.7656H93.4844V49H88.8594V44.7656H87.3125V41.3125H88.8594V39.4375H87.3125V35.7812H88.8594V26.0938H95.4531C97.9115 26.0938 99.6875 26.3021 100.781 26.7188C101.885 27.125 102.776 27.8542 103.453 28.9062C104.12 29.9479 104.453 31.151 104.453 32.5156C104.453 33.6302 104.312 34.5781 104.031 35.3594C103.76 36.1302 103.385 36.7708 102.906 37.2812C102.427 37.7917 101.859 38.1927 101.203 38.4844C100.547 38.776 99.8333 38.9948 99.0625 39.1406C98.2917 39.276 97.4844 39.3594 96.6406 39.3906C95.8073 39.4219 94.9635 39.4375 94.1094 39.4375H93.4844V41.3125H99.6875ZM93.4844 35.7812H93.7656C95.9844 35.7812 97.3698 35.6875 97.9219 35.5C98.4844 35.3125 98.9167 34.9896 99.2188 34.5312C99.5312 34.0729 99.6875 33.5 99.6875 32.8125C99.6875 32.0312 99.4896 31.4062 99.0938 30.9375C98.6979 30.4583 98.1094 30.1615 97.3281 30.0469C97.1406 30.026 96.7656 30.0104 96.2031 30C95.651 29.9792 94.901 29.9688 93.9531 29.9688H93.4844V35.7812Z" fill="#0077C0"/>
<path d="M1.39746 3.11523H3.10254V14.4795H9.81738V3.11523H11.5312V14.4795H12.709V19.5771H11.1973V16H1.39746V3.11523ZM20.9004 12.9941L22.5352 13.1963C22.2773 14.1514 21.7998 14.8926 21.1025 15.4199C20.4053 15.9473 19.5146 16.2109 18.4307 16.2109C17.0654 16.2109 15.9814 15.792 15.1787 14.9541C14.3818 14.1104 13.9834 12.9297 13.9834 11.4121C13.9834 9.8418 14.3877 8.62305 15.1963 7.75586C16.0049 6.88867 17.0537 6.45508 18.3428 6.45508C19.5908 6.45508 20.6104 6.87988 21.4014 7.72949C22.1924 8.5791 22.5879 9.77441 22.5879 11.3154C22.5879 11.4092 22.585 11.5498 22.5791 11.7373H15.6182C15.6768 12.7627 15.9668 13.5479 16.4883 14.0928C17.0098 14.6377 17.6602 14.9102 18.4395 14.9102C19.0195 14.9102 19.5146 14.7578 19.9248 14.4531C20.335 14.1484 20.6602 13.6621 20.9004 12.9941ZM15.7061 10.4365H20.918C20.8477 9.65137 20.6484 9.0625 20.3203 8.66992C19.8164 8.06055 19.1631 7.75586 18.3604 7.75586C17.6338 7.75586 17.0215 7.99902 16.5234 8.48535C16.0312 8.97168 15.7588 9.62207 15.7061 10.4365ZM24.5391 6.66602H26.1211V10.5508H30.5068V6.66602H32.0889V16H30.5068V11.8604H26.1211V16H24.5391V6.66602ZM40.5703 14.8486C39.9844 15.3467 39.4189 15.6982 38.874 15.9033C38.335 16.1084 37.7549 16.2109 37.1338 16.2109C36.1084 16.2109 35.3203 15.9619 34.7695 15.4639C34.2188 14.96 33.9434 14.3184 33.9434 13.5391C33.9434 13.082 34.0459 12.666 34.251 12.291C34.4619 11.9102 34.7344 11.6055 35.0684 11.377C35.4082 11.1484 35.7891 10.9756 36.2109 10.8584C36.5215 10.7764 36.9902 10.6973 37.6172 10.6211C38.8945 10.4688 39.835 10.2871 40.4385 10.0762C40.4443 9.85938 40.4473 9.72168 40.4473 9.66309C40.4473 9.01855 40.2979 8.56445 39.999 8.30078C39.5947 7.94336 38.9941 7.76465 38.1973 7.76465C37.4531 7.76465 36.9023 7.89648 36.5449 8.16016C36.1934 8.41797 35.9326 8.87793 35.7627 9.54004L34.2158 9.3291C34.3564 8.66699 34.5879 8.13379 34.9102 7.72949C35.2324 7.31934 35.6982 7.00586 36.3076 6.78906C36.917 6.56641 37.623 6.45508 38.4258 6.45508C39.2227 6.45508 39.8701 6.54883 40.3682 6.73633C40.8662 6.92383 41.2324 7.16113 41.4668 7.44824C41.7012 7.72949 41.8652 8.08691 41.959 8.52051C42.0117 8.79004 42.0381 9.27637 42.0381 9.97949V12.0889C42.0381 13.5596 42.0703 14.4912 42.1348 14.8838C42.2051 15.2705 42.3398 15.6426 42.5391 16H40.8867C40.7227 15.6719 40.6172 15.2881 40.5703 14.8486ZM40.4385 11.3154C39.8643 11.5498 39.0029 11.749 37.8545 11.9131C37.2041 12.0068 36.7441 12.1123 36.4746 12.2295C36.2051 12.3467 35.9971 12.5195 35.8506 12.748C35.7041 12.9707 35.6309 13.2197 35.6309 13.4951C35.6309 13.917 35.7891 14.2686 36.1055 14.5498C36.4277 14.8311 36.8965 14.9717 37.5117 14.9717C38.1211 14.9717 38.6631 14.8398 39.1377 14.5762C39.6123 14.3066 39.9609 13.9404 40.1836 13.4775C40.3535 13.1201 40.4385 12.5928 40.4385 11.8955V11.3154Z" fill="#0077C0"/>
</svg>
