<svg width="48" height="48" viewBox="0 0 48 48" fill="none" xmlns="http://www.w3.org/2000/svg">
<path d="M24 45.6186C35.907 45.6186 45.6186 35.9441 45.6186 24C45.6186 12.0558 35.907 2.38135 24 2.38135C12.093 2.38135 2.38141 12.093 2.38141 24C2.38141 35.9069 12.093 45.6186 24 45.6186ZM24 5.43251C34.2326 5.43251 42.5675 13.7674 42.5675 24C42.5675 34.2325 34.2326 42.5674 24 42.5674C13.7675 42.5674 5.43257 34.2325 5.43257 24C5.43257 13.7674 13.7675 5.43251 24 5.43251Z" fill="#CFD4DA"/>
<path d="M19.014 34.7906C19.3116 35.0883 19.6837 35.2371 20.093 35.2371C20.4651 35.2371 20.8744 35.0883 21.1721 34.7906L30.9954 24.9673C31.293 24.6697 31.4419 24.2976 31.4419 23.8883C31.4419 23.479 31.293 23.1069 30.9954 22.8092L21.1721 12.9859C20.5767 12.3906 19.6093 12.3906 19.014 12.9859C18.4186 13.5813 18.4186 14.5487 19.014 15.1441L27.7581 23.8883L19.014 32.6325C18.4186 33.2278 18.4186 34.1952 19.014 34.7906Z" fill="#CFD4DA"/>
</svg>
