<svg width="48" height="48" viewBox="0 0 48 48" fill="none" xmlns="http://www.w3.org/2000/svg">
<path d="M24 2.38144C12.093 2.38144 2.38138 12.0559 2.38138 24C2.38138 35.9442 12.093 45.6187 24 45.6187C35.907 45.6187 45.6186 35.907 45.6186 24C45.6186 12.0931 35.907 2.38144 24 2.38144ZM24 42.5675C13.7674 42.5675 5.43255 34.2326 5.43255 24C5.43255 13.7675 13.7674 5.4326 24 5.4326C34.2325 5.4326 42.5674 13.7675 42.5674 24C42.5674 34.2326 34.2325 42.5675 24 42.5675Z" fill="#324152" fill-opacity="0.4"/>
<path d="M28.986 13.2094C28.6884 12.9117 28.3163 12.7629 27.907 12.7629C27.5349 12.7629 27.1256 12.9117 26.8279 13.2094L17.0046 23.0327C16.707 23.3303 16.5581 23.7024 16.5581 24.1117C16.5581 24.521 16.707 24.8931 17.0046 25.1908L26.8279 35.0141C27.4233 35.6094 28.3907 35.6094 28.986 35.0141C29.5814 34.4187 29.5814 33.4513 28.986 32.8559L20.2419 24.1117L28.986 15.3675C29.5814 14.7722 29.5814 13.8048 28.986 13.2094Z" fill="#324152" fill-opacity="0.4"/>
</svg>
