<svg width="76" height="56" viewBox="0 0 76 56" fill="none" xmlns="http://www.w3.org/2000/svg">
<mask id="path-1-inside-1" fill="white">
<path d="M16.4575 39.2794C12.0957 39.2794 8.54732 42.8278 8.54732 47.1896C8.54732 51.5508 12.0957 55.0992 16.4575 55.0992C20.8193 55.0992 24.3671 51.5508 24.3671 47.1896C24.3671 42.8278 20.8187 39.2794 16.4575 39.2794ZM16.4575 52.8486C13.3369 52.8486 10.7979 50.3096 10.7979 47.1896C10.7979 44.069 13.3369 41.53 16.4575 41.53C19.5781 41.53 22.1166 44.069 22.1166 47.1896C22.1166 50.3096 19.5781 52.8486 16.4575 52.8486Z"/>
<path d="M16.4575 43.1492C14.2295 43.1492 12.4165 44.9616 12.4165 47.1896C12.4165 49.4176 14.2295 51.23 16.4575 51.23C18.6849 51.23 20.4978 49.417 20.4978 47.1896C20.4972 44.9616 18.6849 43.1492 16.4575 43.1492ZM16.4575 48.9788C15.4701 48.9788 14.6677 48.1764 14.6677 47.1896C14.6677 46.2028 15.4701 45.3998 16.4575 45.3998C17.4443 45.3998 18.2467 46.2028 18.2467 47.1896C18.2467 48.1764 17.4443 48.9788 16.4575 48.9788Z"/>
<path d="M70.5997 23.3856C70.8095 23.0792 70.8552 22.6902 70.7217 22.3439L66.2703 10.8044C65.7662 9.49902 64.488 8.62146 63.089 8.62146H47.993C47.3715 8.62146 46.8674 9.12557 46.8674 9.74703V22.7491C46.8674 23.3706 47.3715 23.8741 47.993 23.8741H69.6718C70.043 23.8741 70.3898 23.6915 70.5997 23.3856ZM49.1179 21.6236V10.872H63.089C63.5642 10.872 63.9989 11.1709 64.1706 11.6149L68.0317 21.6236H49.1179Z"/>
<path d="M58.77 39.2794C54.4082 39.2794 50.8598 42.8278 50.8598 47.1896C50.8598 51.5508 54.4082 55.0992 58.77 55.0992C63.1318 55.0992 66.6802 51.5508 66.6802 47.1896C66.6802 42.8278 63.1318 39.2794 58.77 39.2794ZM58.77 52.8486C55.6494 52.8486 53.1109 50.3096 53.1109 47.1896C53.1109 44.069 55.6494 41.53 58.77 41.53C61.8906 41.53 64.4296 44.069 64.4296 47.1896C64.429 50.3096 61.8906 52.8486 58.77 52.8486Z"/>
<path d="M58.77 43.1492C56.542 43.1492 54.7296 44.9616 54.7296 47.1896C54.7296 49.4176 56.542 51.23 58.77 51.23C60.998 51.23 62.8103 49.417 62.8103 47.1896C62.8103 44.9616 60.998 43.1492 58.77 43.1492ZM58.77 48.9788C57.7832 48.9788 56.9802 48.1764 56.9802 47.1896C56.9802 46.2028 57.7832 45.3998 58.77 45.3998C59.7568 45.3998 60.5598 46.2028 60.5598 47.1896C60.5598 48.1764 59.7568 48.9788 58.77 48.9788Z"/>
<path d="M39.0538 36.5178H31.1598C30.5383 36.5178 30.0348 37.0214 30.0348 37.6428C30.0348 38.2643 30.5383 38.7684 31.1598 38.7684H39.0538C39.6752 38.7684 40.1787 38.2643 40.1787 37.6428C40.1787 37.0214 39.6752 36.5178 39.0538 36.5178Z"/>
<path d="M39.0538 40.4645H31.1598C30.5383 40.4645 30.0348 40.9681 30.0348 41.5895C30.0348 42.211 30.5383 42.7151 31.1598 42.7151H39.0538C39.6752 42.7151 40.1787 42.211 40.1787 41.5895C40.1787 40.9681 39.6752 40.4645 39.0538 40.4645Z"/>
<path d="M52.0282 26.0426C51.4062 26.0426 50.9027 26.5467 50.9027 27.1681C50.9027 27.7896 51.4062 28.2931 52.0282 28.2931H56.7866C57.4081 28.2931 57.9116 27.7896 57.9116 27.1681C57.9116 26.5467 57.4081 26.0426 56.7866 26.0426H52.0282Z"/>
<path d="M18.7092 20.5385C18.7092 21.1691 18.198 21.6804 17.5673 21.6804C16.9366 21.6804 16.4253 21.1691 16.4253 20.5385C16.4253 19.9078 16.9366 19.3965 17.5673 19.3965C18.198 19.3965 18.7092 19.9078 18.7092 20.5385Z"/>
<path fill-rule="evenodd" clip-rule="evenodd" d="M3.77101 1.59694C3.77101 1.08813 4.10892 0.658373 4.57249 0.519287H39.0288C39.4926 0.658461 39.8302 1.08865 39.8302 1.59751V10.3587C39.8302 10.3645 39.8308 10.3702 39.8308 10.376C39.8308 10.3818 39.8302 10.3876 39.8302 10.3934V30.9183H42.2235V5.10371C42.2235 4.48225 42.7271 3.97872 43.3485 3.97872H63.0896C66.394 3.97872 69.4129 6.05007 70.602 9.13309L75.6974 22.3433C75.7477 22.4728 75.7732 22.6098 75.7732 22.748V47.1891C75.7732 47.8105 75.2696 48.3146 74.6476 48.3146H69.9303C69.3088 48.3146 68.8047 47.8105 68.8047 47.1891C68.8047 45.0848 68.1607 43.0701 66.9421 41.3641C66.5807 40.8583 66.6975 40.1553 67.2034 39.794C67.7092 39.4332 68.4122 39.55 68.7735 40.0558C70.0476 41.8393 70.809 43.8973 71.005 46.0641H73.5226V22.9579L68.5024 9.94302C67.6456 7.72194 65.4702 6.22928 63.0896 6.22928H44.4741V46.0641H46.5356C47.1056 39.8148 52.3744 34.9038 58.77 34.9038C61.4079 34.9038 63.9226 35.7276 66.0414 37.2862C66.5426 37.6544 66.6495 38.3585 66.2813 38.8592C65.9136 39.3604 65.2089 39.4673 64.7083 39.0991C62.9786 37.8273 60.9246 37.1543 58.77 37.1543C53.237 37.1543 48.7353 41.656 48.7353 47.1896C48.7353 47.8111 48.2318 48.3146 47.6097 48.3146H27.6172C26.9957 48.3146 26.4922 47.8111 26.4922 47.1896C26.4922 41.656 21.9905 37.1543 16.4575 37.1543C10.9239 37.1543 6.42219 41.656 6.42219 47.1896C6.42219 47.8111 5.91866 48.3146 5.2972 48.3146H1.12561C0.503574 48.3146 4.57764e-05 47.8111 4.57764e-05 47.1896V32.0433C4.57764e-05 31.4219 0.503574 30.9183 1.12561 30.9183H3.77101V1.59694ZM16.4725 2.7225V9.25045H6.02157V2.7225H16.4725ZM6.02157 11.5016H16.4725V17.5717C16.4725 18.1937 16.9766 18.6972 17.5981 18.6972C18.2195 18.6972 18.7236 18.1937 18.7236 17.5717V2.7225H21.9909V2.71583H37.5815V30.9251H21.9909V30.9183H18.7236V23.7917C18.7236 23.1696 18.2195 22.6661 17.5981 22.6661C16.9766 22.6661 16.4725 23.1696 16.4725 23.7917V30.9183H6.02157V11.5016ZM16.4575 34.9038C10.0625 34.9038 4.79252 39.8148 4.22309 46.0641H2.2506V33.1689H42.2235V46.0641H28.6913C28.1219 39.8148 22.8525 34.9038 16.4575 34.9038Z"/>
</mask>
<path d="M16.4575 39.2794C12.0957 39.2794 8.54732 42.8278 8.54732 47.1896C8.54732 51.5508 12.0957 55.0992 16.4575 55.0992C20.8193 55.0992 24.3671 51.5508 24.3671 47.1896C24.3671 42.8278 20.8187 39.2794 16.4575 39.2794ZM16.4575 52.8486C13.3369 52.8486 10.7979 50.3096 10.7979 47.1896C10.7979 44.069 13.3369 41.53 16.4575 41.53C19.5781 41.53 22.1166 44.069 22.1166 47.1896C22.1166 50.3096 19.5781 52.8486 16.4575 52.8486Z" fill="#0077C0"/>
<path d="M16.4575 43.1492C14.2295 43.1492 12.4165 44.9616 12.4165 47.1896C12.4165 49.4176 14.2295 51.23 16.4575 51.23C18.6849 51.23 20.4978 49.417 20.4978 47.1896C20.4972 44.9616 18.6849 43.1492 16.4575 43.1492ZM16.4575 48.9788C15.4701 48.9788 14.6677 48.1764 14.6677 47.1896C14.6677 46.2028 15.4701 45.3998 16.4575 45.3998C17.4443 45.3998 18.2467 46.2028 18.2467 47.1896C18.2467 48.1764 17.4443 48.9788 16.4575 48.9788Z" fill="#0077C0"/>
<path d="M70.5997 23.3856C70.8095 23.0792 70.8552 22.6902 70.7217 22.3439L66.2703 10.8044C65.7662 9.49902 64.488 8.62146 63.089 8.62146H47.993C47.3715 8.62146 46.8674 9.12557 46.8674 9.74703V22.7491C46.8674 23.3706 47.3715 23.8741 47.993 23.8741H69.6718C70.043 23.8741 70.3898 23.6915 70.5997 23.3856ZM49.1179 21.6236V10.872H63.089C63.5642 10.872 63.9989 11.1709 64.1706 11.6149L68.0317 21.6236H49.1179Z" fill="#0077C0"/>
<path d="M58.77 39.2794C54.4082 39.2794 50.8598 42.8278 50.8598 47.1896C50.8598 51.5508 54.4082 55.0992 58.77 55.0992C63.1318 55.0992 66.6802 51.5508 66.6802 47.1896C66.6802 42.8278 63.1318 39.2794 58.77 39.2794ZM58.77 52.8486C55.6494 52.8486 53.1109 50.3096 53.1109 47.1896C53.1109 44.069 55.6494 41.53 58.77 41.53C61.8906 41.53 64.4296 44.069 64.4296 47.1896C64.429 50.3096 61.8906 52.8486 58.77 52.8486Z" fill="#0077C0"/>
<path d="M58.77 43.1492C56.542 43.1492 54.7296 44.9616 54.7296 47.1896C54.7296 49.4176 56.542 51.23 58.77 51.23C60.998 51.23 62.8103 49.417 62.8103 47.1896C62.8103 44.9616 60.998 43.1492 58.77 43.1492ZM58.77 48.9788C57.7832 48.9788 56.9802 48.1764 56.9802 47.1896C56.9802 46.2028 57.7832 45.3998 58.77 45.3998C59.7568 45.3998 60.5598 46.2028 60.5598 47.1896C60.5598 48.1764 59.7568 48.9788 58.77 48.9788Z" fill="#0077C0"/>
<path d="M39.0538 36.5178H31.1598C30.5383 36.5178 30.0348 37.0214 30.0348 37.6428C30.0348 38.2643 30.5383 38.7684 31.1598 38.7684H39.0538C39.6752 38.7684 40.1787 38.2643 40.1787 37.6428C40.1787 37.0214 39.6752 36.5178 39.0538 36.5178Z" fill="#0077C0"/>
<path d="M39.0538 40.4645H31.1598C30.5383 40.4645 30.0348 40.9681 30.0348 41.5895C30.0348 42.211 30.5383 42.7151 31.1598 42.7151H39.0538C39.6752 42.7151 40.1787 42.211 40.1787 41.5895C40.1787 40.9681 39.6752 40.4645 39.0538 40.4645Z" fill="#0077C0"/>
<path d="M52.0282 26.0426C51.4062 26.0426 50.9027 26.5467 50.9027 27.1681C50.9027 27.7896 51.4062 28.2931 52.0282 28.2931H56.7866C57.4081 28.2931 57.9116 27.7896 57.9116 27.1681C57.9116 26.5467 57.4081 26.0426 56.7866 26.0426H52.0282Z" fill="#0077C0"/>
<path d="M18.7092 20.5385C18.7092 21.1691 18.198 21.6804 17.5673 21.6804C16.9366 21.6804 16.4253 21.1691 16.4253 20.5385C16.4253 19.9078 16.9366 19.3965 17.5673 19.3965C18.198 19.3965 18.7092 19.9078 18.7092 20.5385Z" fill="#0077C0"/>
<path fill-rule="evenodd" clip-rule="evenodd" d="M3.77101 1.59694C3.77101 1.08813 4.10892 0.658373 4.57249 0.519287H39.0288C39.4926 0.658461 39.8302 1.08865 39.8302 1.59751V10.3587C39.8302 10.3645 39.8308 10.3702 39.8308 10.376C39.8308 10.3818 39.8302 10.3876 39.8302 10.3934V30.9183H42.2235V5.10371C42.2235 4.48225 42.7271 3.97872 43.3485 3.97872H63.0896C66.394 3.97872 69.4129 6.05007 70.602 9.13309L75.6974 22.3433C75.7477 22.4728 75.7732 22.6098 75.7732 22.748V47.1891C75.7732 47.8105 75.2696 48.3146 74.6476 48.3146H69.9303C69.3088 48.3146 68.8047 47.8105 68.8047 47.1891C68.8047 45.0848 68.1607 43.0701 66.9421 41.3641C66.5807 40.8583 66.6975 40.1553 67.2034 39.794C67.7092 39.4332 68.4122 39.55 68.7735 40.0558C70.0476 41.8393 70.809 43.8973 71.005 46.0641H73.5226V22.9579L68.5024 9.94302C67.6456 7.72194 65.4702 6.22928 63.0896 6.22928H44.4741V46.0641H46.5356C47.1056 39.8148 52.3744 34.9038 58.77 34.9038C61.4079 34.9038 63.9226 35.7276 66.0414 37.2862C66.5426 37.6544 66.6495 38.3585 66.2813 38.8592C65.9136 39.3604 65.2089 39.4673 64.7083 39.0991C62.9786 37.8273 60.9246 37.1543 58.77 37.1543C53.237 37.1543 48.7353 41.656 48.7353 47.1896C48.7353 47.8111 48.2318 48.3146 47.6097 48.3146H27.6172C26.9957 48.3146 26.4922 47.8111 26.4922 47.1896C26.4922 41.656 21.9905 37.1543 16.4575 37.1543C10.9239 37.1543 6.42219 41.656 6.42219 47.1896C6.42219 47.8111 5.91866 48.3146 5.2972 48.3146H1.12561C0.503574 48.3146 4.57764e-05 47.8111 4.57764e-05 47.1896V32.0433C4.57764e-05 31.4219 0.503574 30.9183 1.12561 30.9183H3.77101V1.59694ZM16.4725 2.7225V9.25045H6.02157V2.7225H16.4725ZM6.02157 11.5016H16.4725V17.5717C16.4725 18.1937 16.9766 18.6972 17.5981 18.6972C18.2195 18.6972 18.7236 18.1937 18.7236 17.5717V2.7225H21.9909V2.71583H37.5815V30.9251H21.9909V30.9183H18.7236V23.7917C18.7236 23.1696 18.2195 22.6661 17.5981 22.6661C16.9766 22.6661 16.4725 23.1696 16.4725 23.7917V30.9183H6.02157V11.5016ZM16.4575 34.9038C10.0625 34.9038 4.79252 39.8148 4.22309 46.0641H2.2506V33.1689H42.2235V46.0641H28.6913C28.1219 39.8148 22.8525 34.9038 16.4575 34.9038Z" fill="#0077C0"/>
<path d="M16.4575 39.2794C12.0957 39.2794 8.54732 42.8278 8.54732 47.1896C8.54732 51.5508 12.0957 55.0992 16.4575 55.0992C20.8193 55.0992 24.3671 51.5508 24.3671 47.1896C24.3671 42.8278 20.8187 39.2794 16.4575 39.2794ZM16.4575 52.8486C13.3369 52.8486 10.7979 50.3096 10.7979 47.1896C10.7979 44.069 13.3369 41.53 16.4575 41.53C19.5781 41.53 22.1166 44.069 22.1166 47.1896C22.1166 50.3096 19.5781 52.8486 16.4575 52.8486Z" stroke="#0077C0" stroke-width="2" mask="url(#path-1-inside-1)"/>
<path d="M16.4575 43.1492C14.2295 43.1492 12.4165 44.9616 12.4165 47.1896C12.4165 49.4176 14.2295 51.23 16.4575 51.23C18.6849 51.23 20.4978 49.417 20.4978 47.1896C20.4972 44.9616 18.6849 43.1492 16.4575 43.1492ZM16.4575 48.9788C15.4701 48.9788 14.6677 48.1764 14.6677 47.1896C14.6677 46.2028 15.4701 45.3998 16.4575 45.3998C17.4443 45.3998 18.2467 46.2028 18.2467 47.1896C18.2467 48.1764 17.4443 48.9788 16.4575 48.9788Z" stroke="#0077C0" stroke-width="2" mask="url(#path-1-inside-1)"/>
<path d="M70.5997 23.3856C70.8095 23.0792 70.8552 22.6902 70.7217 22.3439L66.2703 10.8044C65.7662 9.49902 64.488 8.62146 63.089 8.62146H47.993C47.3715 8.62146 46.8674 9.12557 46.8674 9.74703V22.7491C46.8674 23.3706 47.3715 23.8741 47.993 23.8741H69.6718C70.043 23.8741 70.3898 23.6915 70.5997 23.3856ZM49.1179 21.6236V10.872H63.089C63.5642 10.872 63.9989 11.1709 64.1706 11.6149L68.0317 21.6236H49.1179Z" stroke="#0077C0" stroke-width="2" mask="url(#path-1-inside-1)"/>
<path d="M58.77 39.2794C54.4082 39.2794 50.8598 42.8278 50.8598 47.1896C50.8598 51.5508 54.4082 55.0992 58.77 55.0992C63.1318 55.0992 66.6802 51.5508 66.6802 47.1896C66.6802 42.8278 63.1318 39.2794 58.77 39.2794ZM58.77 52.8486C55.6494 52.8486 53.1109 50.3096 53.1109 47.1896C53.1109 44.069 55.6494 41.53 58.77 41.53C61.8906 41.53 64.4296 44.069 64.4296 47.1896C64.429 50.3096 61.8906 52.8486 58.77 52.8486Z" stroke="#0077C0" stroke-width="2" mask="url(#path-1-inside-1)"/>
<path d="M58.77 43.1492C56.542 43.1492 54.7296 44.9616 54.7296 47.1896C54.7296 49.4176 56.542 51.23 58.77 51.23C60.998 51.23 62.8103 49.417 62.8103 47.1896C62.8103 44.9616 60.998 43.1492 58.77 43.1492ZM58.77 48.9788C57.7832 48.9788 56.9802 48.1764 56.9802 47.1896C56.9802 46.2028 57.7832 45.3998 58.77 45.3998C59.7568 45.3998 60.5598 46.2028 60.5598 47.1896C60.5598 48.1764 59.7568 48.9788 58.77 48.9788Z" stroke="#0077C0" stroke-width="2" mask="url(#path-1-inside-1)"/>
<path d="M39.0538 36.5178H31.1598C30.5383 36.5178 30.0348 37.0214 30.0348 37.6428C30.0348 38.2643 30.5383 38.7684 31.1598 38.7684H39.0538C39.6752 38.7684 40.1787 38.2643 40.1787 37.6428C40.1787 37.0214 39.6752 36.5178 39.0538 36.5178Z" stroke="#0077C0" stroke-width="2" mask="url(#path-1-inside-1)"/>
<path d="M39.0538 40.4645H31.1598C30.5383 40.4645 30.0348 40.9681 30.0348 41.5895C30.0348 42.211 30.5383 42.7151 31.1598 42.7151H39.0538C39.6752 42.7151 40.1787 42.211 40.1787 41.5895C40.1787 40.9681 39.6752 40.4645 39.0538 40.4645Z" stroke="#0077C0" stroke-width="2" mask="url(#path-1-inside-1)"/>
<path d="M52.0282 26.0426C51.4062 26.0426 50.9027 26.5467 50.9027 27.1681C50.9027 27.7896 51.4062 28.2931 52.0282 28.2931H56.7866C57.4081 28.2931 57.9116 27.7896 57.9116 27.1681C57.9116 26.5467 57.4081 26.0426 56.7866 26.0426H52.0282Z" stroke="#0077C0" stroke-width="2" mask="url(#path-1-inside-1)"/>
<path d="M18.7092 20.5385C18.7092 21.1691 18.198 21.6804 17.5673 21.6804C16.9366 21.6804 16.4253 21.1691 16.4253 20.5385C16.4253 19.9078 16.9366 19.3965 17.5673 19.3965C18.198 19.3965 18.7092 19.9078 18.7092 20.5385Z" stroke="#0077C0" stroke-width="2" mask="url(#path-1-inside-1)"/>
<path fill-rule="evenodd" clip-rule="evenodd" d="M3.77101 1.59694C3.77101 1.08813 4.10892 0.658373 4.57249 0.519287H39.0288C39.4926 0.658461 39.8302 1.08865 39.8302 1.59751V10.3587C39.8302 10.3645 39.8308 10.3702 39.8308 10.376C39.8308 10.3818 39.8302 10.3876 39.8302 10.3934V30.9183H42.2235V5.10371C42.2235 4.48225 42.7271 3.97872 43.3485 3.97872H63.0896C66.394 3.97872 69.4129 6.05007 70.602 9.13309L75.6974 22.3433C75.7477 22.4728 75.7732 22.6098 75.7732 22.748V47.1891C75.7732 47.8105 75.2696 48.3146 74.6476 48.3146H69.9303C69.3088 48.3146 68.8047 47.8105 68.8047 47.1891C68.8047 45.0848 68.1607 43.0701 66.9421 41.3641C66.5807 40.8583 66.6975 40.1553 67.2034 39.794C67.7092 39.4332 68.4122 39.55 68.7735 40.0558C70.0476 41.8393 70.809 43.8973 71.005 46.0641H73.5226V22.9579L68.5024 9.94302C67.6456 7.72194 65.4702 6.22928 63.0896 6.22928H44.4741V46.0641H46.5356C47.1056 39.8148 52.3744 34.9038 58.77 34.9038C61.4079 34.9038 63.9226 35.7276 66.0414 37.2862C66.5426 37.6544 66.6495 38.3585 66.2813 38.8592C65.9136 39.3604 65.2089 39.4673 64.7083 39.0991C62.9786 37.8273 60.9246 37.1543 58.77 37.1543C53.237 37.1543 48.7353 41.656 48.7353 47.1896C48.7353 47.8111 48.2318 48.3146 47.6097 48.3146H27.6172C26.9957 48.3146 26.4922 47.8111 26.4922 47.1896C26.4922 41.656 21.9905 37.1543 16.4575 37.1543C10.9239 37.1543 6.42219 41.656 6.42219 47.1896C6.42219 47.8111 5.91866 48.3146 5.2972 48.3146H1.12561C0.503574 48.3146 4.57764e-05 47.8111 4.57764e-05 47.1896V32.0433C4.57764e-05 31.4219 0.503574 30.9183 1.12561 30.9183H3.77101V1.59694ZM16.4725 2.7225V9.25045H6.02157V2.7225H16.4725ZM6.02157 11.5016H16.4725V17.5717C16.4725 18.1937 16.9766 18.6972 17.5981 18.6972C18.2195 18.6972 18.7236 18.1937 18.7236 17.5717V2.7225H21.9909V2.71583H37.5815V30.9251H21.9909V30.9183H18.7236V23.7917C18.7236 23.1696 18.2195 22.6661 17.5981 22.6661C16.9766 22.6661 16.4725 23.1696 16.4725 23.7917V30.9183H6.02157V11.5016ZM16.4575 34.9038C10.0625 34.9038 4.79252 39.8148 4.22309 46.0641H2.2506V33.1689H42.2235V46.0641H28.6913C28.1219 39.8148 22.8525 34.9038 16.4575 34.9038Z" stroke="#0077C0" stroke-width="2" mask="url(#path-1-inside-1)"/>
</svg>
