<svg width="145" height="208" viewBox="0 0 145 208" fill="none" xmlns="http://www.w3.org/2000/svg">
<rect x="0.5" y="0.5" width="144" height="207" stroke="#BBC2C9"/>
<rect x="7.5" y="5.5" width="130" height="197" stroke="#BBC2C9"/>
<rect x="20.5" y="18.5" width="104" height="171" fill="#99D6FC" stroke="#BBC2C9"/>
<mask id="mask0" mask-type="alpha" maskUnits="userSpaceOnUse" x="20" y="19" width="104" height="171">
<rect x="20" y="19" width="104" height="171" fill="#C4C4C4"/>
</mask>
<g mask="url(#mask0)">
<rect opacity="0.4" x="120.531" y="-6" width="70.6682" height="136.516" transform="rotate(45 120.531 -6)" fill="url(#paint0_linear)"/>
<rect opacity="0.4" x="196.625" y="-29" width="50" height="249.785" transform="rotate(45 196.625 -29)" fill="url(#paint1_linear)"/>
</g>
<rect x="5.5" y="12.5" width="3" height="6" fill="#F6F9FC" stroke="#BBC2C9"/>
<rect x="5.5" y="18.5" width="3" height="6" fill="#F6F9FC" stroke="#BBC2C9"/>
<rect x="5.5" y="183.5" width="3" height="6" fill="#F6F9FC" stroke="#BBC2C9"/>
<rect x="5.5" y="189.5" width="3" height="6" fill="#F6F9FC" stroke="#BBC2C9"/>
<rect x="128.5" y="91.5" width="6" height="10" rx="1.5" stroke="#BBC2C9"/>
<rect x="129.5" y="93.5" width="4" height="21" rx="1.5" fill="#F6F9FC" stroke="#BBC2C9"/>
<path d="M21 19L123 103.5L22 187.5L74 21L123 189" stroke="white"/>
<defs>
<linearGradient id="paint0_linear" x1="155.865" y1="-6" x2="155.865" y2="130.516" gradientUnits="userSpaceOnUse">
<stop stop-color="white"/>
<stop offset="1" stop-color="white" stop-opacity="0"/>
</linearGradient>
<linearGradient id="paint1_linear" x1="221.625" y1="-29" x2="221.625" y2="220.785" gradientUnits="userSpaceOnUse">
<stop stop-color="white"/>
<stop offset="1" stop-color="white" stop-opacity="0"/>
</linearGradient>
</defs>
</svg>
