<svg width="52" height="12" viewBox="0 0 52 12" fill="none" xmlns="http://www.w3.org/2000/svg">
<path d="M0.0253906 0.978516H4.03125C4.82422 0.978516 5.41439 1.0127 5.80176 1.08105C6.19368 1.14486 6.54232 1.28158 6.84766 1.49121C7.15755 1.70085 7.41504 1.98112 7.62012 2.33203C7.8252 2.67839 7.92773 3.06803 7.92773 3.50098C7.92773 3.97038 7.80013 4.40104 7.54492 4.79297C7.29427 5.1849 6.95247 5.47884 6.51953 5.6748C7.13021 5.85254 7.59961 6.1556 7.92773 6.58398C8.25586 7.01237 8.41992 7.51595 8.41992 8.09473C8.41992 8.55046 8.31283 8.99479 8.09863 9.42773C7.889 9.85612 7.59961 10.2002 7.23047 10.46C6.86589 10.7152 6.41471 10.8724 5.87695 10.9316C5.53971 10.9681 4.72624 10.9909 3.43652 11H0.0253906V0.978516ZM2.04883 2.64648V4.96387H3.375C4.16341 4.96387 4.65332 4.95247 4.84473 4.92969C5.19108 4.88867 5.46224 4.77018 5.6582 4.57422C5.85872 4.3737 5.95898 4.11165 5.95898 3.78809C5.95898 3.47819 5.8724 3.22754 5.69922 3.03613C5.5306 2.84017 5.27767 2.72168 4.94043 2.68066C4.73991 2.65788 4.16341 2.64648 3.21094 2.64648H2.04883ZM2.04883 6.63184V9.31152H3.92188C4.65104 9.31152 5.11361 9.29102 5.30957 9.25C5.61035 9.19531 5.85417 9.06315 6.04102 8.85352C6.23242 8.63932 6.32812 8.35449 6.32812 7.99902C6.32812 7.69824 6.25521 7.44303 6.10938 7.2334C5.96354 7.02376 5.75163 6.87109 5.47363 6.77539C5.2002 6.67969 4.60319 6.63184 3.68262 6.63184H2.04883ZM10.1357 3.74023H12.0566V6.75488H13.9844C14.7409 6.75488 15.3174 6.80957 15.7139 6.91895C16.1149 7.02376 16.4521 7.25618 16.7256 7.61621C17.0036 7.97624 17.1426 8.40007 17.1426 8.8877C17.1426 9.58952 16.901 10.1182 16.418 10.4736C15.9349 10.8245 15.2103 11 14.2441 11H10.1357V3.74023ZM12.0566 9.7832H13.8408C14.3057 9.7832 14.6429 9.71029 14.8525 9.56445C15.0622 9.41862 15.167 9.18164 15.167 8.85352C15.167 8.5026 15.0303 8.26335 14.7568 8.13574C14.488 8.00358 14.0026 7.9375 13.3008 7.9375H12.0566V9.7832ZM18.2363 3.74023H20.1572V11H18.2363V3.74023ZM28.415 5.88672L26.5215 6.22852C26.4577 5.85026 26.3118 5.56543 26.084 5.37402C25.8607 5.18262 25.569 5.08691 25.209 5.08691C24.7305 5.08691 24.3477 5.25326 24.0605 5.58594C23.778 5.91406 23.6367 6.46549 23.6367 7.24023C23.6367 8.10156 23.7803 8.70996 24.0674 9.06543C24.359 9.4209 24.7487 9.59863 25.2363 9.59863C25.6009 9.59863 25.8994 9.49609 26.1318 9.29102C26.3643 9.08138 26.5283 8.72363 26.624 8.21777L28.5107 8.53906C28.3148 9.40495 27.9388 10.0589 27.3828 10.501C26.8268 10.943 26.0817 11.1641 25.1475 11.1641C24.0856 11.1641 23.238 10.8291 22.6045 10.1592C21.9756 9.48926 21.6611 8.56185 21.6611 7.37695C21.6611 6.17839 21.9779 5.24642 22.6113 4.58105C23.2448 3.91113 24.1016 3.57617 25.1816 3.57617C26.0658 3.57617 26.7676 3.76758 27.2871 4.15039C27.8112 4.52865 28.1872 5.10742 28.415 5.88672ZM29.4336 7.26758C29.4336 6.62956 29.5908 6.01204 29.9053 5.41504C30.2197 4.81803 30.6641 4.3623 31.2383 4.04785C31.8171 3.7334 32.4619 3.57617 33.1729 3.57617C34.2712 3.57617 35.1712 3.93392 35.873 4.64941C36.5749 5.36035 36.9258 6.26042 36.9258 7.34961C36.9258 8.44792 36.5703 9.35938 35.8594 10.084C35.153 10.804 34.262 11.1641 33.1865 11.1641C32.5212 11.1641 31.8854 11.0137 31.2793 10.7129C30.6777 10.4121 30.2197 9.97233 29.9053 9.39355C29.5908 8.81022 29.4336 8.10156 29.4336 7.26758ZM31.4023 7.37012C31.4023 8.09017 31.5732 8.6416 31.915 9.02441C32.2568 9.40723 32.6784 9.59863 33.1797 9.59863C33.681 9.59863 34.1003 9.40723 34.4375 9.02441C34.7793 8.6416 34.9502 8.08561 34.9502 7.35645C34.9502 6.64551 34.7793 6.09863 34.4375 5.71582C34.1003 5.33301 33.681 5.1416 33.1797 5.1416C32.6784 5.1416 32.2568 5.33301 31.915 5.71582C31.5732 6.09863 31.4023 6.65007 31.4023 7.37012ZM37.2197 3.74023H43.7891V5.29199H41.4648V11H39.5439V5.29199H37.2197V3.74023ZM46.3799 5.95508L44.6367 5.64062C44.8327 4.9388 45.1699 4.41927 45.6484 4.08203C46.127 3.74479 46.8379 3.57617 47.7812 3.57617C48.638 3.57617 49.276 3.67871 49.6953 3.88379C50.1146 4.08431 50.4085 4.3418 50.5771 4.65625C50.7503 4.96615 50.8369 5.53809 50.8369 6.37207L50.8164 8.61426C50.8164 9.25228 50.846 9.72396 50.9053 10.0293C50.9691 10.3301 51.0853 10.6536 51.2539 11H49.3535C49.3034 10.8724 49.2419 10.6833 49.1689 10.4326C49.137 10.3187 49.1143 10.2435 49.1006 10.207C48.7725 10.526 48.4215 10.7653 48.0479 10.9248C47.6742 11.0843 47.2754 11.1641 46.8516 11.1641C46.1042 11.1641 45.514 10.9613 45.0811 10.5557C44.6527 10.1501 44.4385 9.63737 44.4385 9.01758C44.4385 8.60742 44.5365 8.24284 44.7324 7.92383C44.9284 7.60026 45.2018 7.35417 45.5527 7.18555C45.9082 7.01237 46.4186 6.86198 47.084 6.73438C47.9818 6.56576 48.6038 6.40853 48.9502 6.2627V6.07129C48.9502 5.70215 48.859 5.4401 48.6768 5.28516C48.4945 5.12565 48.1504 5.0459 47.6445 5.0459C47.3027 5.0459 47.0361 5.11426 46.8447 5.25098C46.6533 5.38314 46.4984 5.61784 46.3799 5.95508ZM48.9502 7.51367C48.7041 7.5957 48.3145 7.69368 47.7812 7.80762C47.248 7.92155 46.8994 8.0332 46.7354 8.14258C46.4847 8.32031 46.3594 8.5459 46.3594 8.81934C46.3594 9.08822 46.4596 9.32064 46.6602 9.5166C46.8607 9.71257 47.1159 9.81055 47.4258 9.81055C47.7721 9.81055 48.1025 9.69661 48.417 9.46875C48.6494 9.29557 48.8021 9.08366 48.875 8.83301C48.9251 8.66895 48.9502 8.35677 48.9502 7.89648V7.51367Z" fill="#BBC2C9"/>
</svg>
