<svg width="55" height="14" viewBox="0 0 55 14" fill="none" xmlns="http://www.w3.org/2000/svg">
<path d="M0.0527344 0.978516H2.07617V9.31836H4.97461V0.978516H6.99121V9.31836H9.98535V0.978516H12.002L12.0156 11.0068L0.0527344 11V0.978516ZM14.0254 3.74023H15.8711V8.2998L18.8242 3.74023H20.7109V11H18.8652V6.3584L15.8711 11H14.0254V3.74023ZM22.6318 3.74023H24.4229V4.80664C24.6553 4.44206 24.9697 4.14583 25.3662 3.91797C25.7627 3.6901 26.2025 3.57617 26.6855 3.57617C27.5286 3.57617 28.2441 3.90658 28.832 4.56738C29.4199 5.22819 29.7139 6.14876 29.7139 7.3291C29.7139 8.54134 29.4176 9.4847 28.8252 10.1592C28.2327 10.8291 27.515 11.1641 26.6719 11.1641C26.2708 11.1641 25.9062 11.0843 25.5781 10.9248C25.2546 10.7653 24.9128 10.4919 24.5527 10.1045V13.7617H22.6318V3.74023ZM24.5322 7.24707C24.5322 8.06283 24.694 8.66667 25.0176 9.05859C25.3411 9.44596 25.7354 9.63965 26.2002 9.63965C26.6468 9.63965 27.0182 9.46191 27.3145 9.10645C27.6107 8.74642 27.7588 8.15853 27.7588 7.34277C27.7588 6.58171 27.6061 6.0166 27.3008 5.64746C26.9954 5.27832 26.6172 5.09375 26.166 5.09375C25.6966 5.09375 25.307 5.27604 24.9971 5.64062C24.6872 6.00065 24.5322 6.53613 24.5322 7.24707ZM31.1973 3.74023H33.043V8.2998L35.9961 3.74023H37.8828V11H36.0371V6.3584L33.043 11H31.1973V3.74023ZM39.7832 3.74023H41.7041V6.39941H44.4521V3.74023H46.3799V11H44.4521V7.95117H41.7041V11H39.7832V3.74023ZM49.7568 5.95508L48.0137 5.64062C48.2096 4.9388 48.5469 4.41927 49.0254 4.08203C49.5039 3.74479 50.2148 3.57617 51.1582 3.57617C52.015 3.57617 52.653 3.67871 53.0723 3.88379C53.4915 4.08431 53.7855 4.3418 53.9541 4.65625C54.1273 4.96615 54.2139 5.53809 54.2139 6.37207L54.1934 8.61426C54.1934 9.25228 54.223 9.72396 54.2822 10.0293C54.346 10.3301 54.4622 10.6536 54.6309 11H52.7305C52.6803 10.8724 52.6188 10.6833 52.5459 10.4326C52.514 10.3187 52.4912 10.2435 52.4775 10.207C52.1494 10.526 51.7985 10.7653 51.4248 10.9248C51.0511 11.0843 50.6523 11.1641 50.2285 11.1641C49.4811 11.1641 48.891 10.9613 48.458 10.5557C48.0296 10.1501 47.8154 9.63737 47.8154 9.01758C47.8154 8.60742 47.9134 8.24284 48.1094 7.92383C48.3053 7.60026 48.5788 7.35417 48.9297 7.18555C49.2852 7.01237 49.7956 6.86198 50.4609 6.73438C51.3587 6.56576 51.9808 6.40853 52.3271 6.2627V6.07129C52.3271 5.70215 52.236 5.4401 52.0537 5.28516C51.8714 5.12565 51.5273 5.0459 51.0215 5.0459C50.6797 5.0459 50.4131 5.11426 50.2217 5.25098C50.0303 5.38314 49.8753 5.61784 49.7568 5.95508ZM52.3271 7.51367C52.0811 7.5957 51.6914 7.69368 51.1582 7.80762C50.625 7.92155 50.2764 8.0332 50.1123 8.14258C49.8617 8.32031 49.7363 8.5459 49.7363 8.81934C49.7363 9.08822 49.8366 9.32064 50.0371 9.5166C50.2376 9.71257 50.4928 9.81055 50.8027 9.81055C51.1491 9.81055 51.4795 9.69661 51.7939 9.46875C52.0264 9.29557 52.179 9.08366 52.252 8.83301C52.3021 8.66895 52.3271 8.35677 52.3271 7.89648V7.51367Z" fill="#BBC2C9"/>
</svg>
